<svg width="16" height="16" viewBox="0 0 16 16" fill="none" xmlns="http://www.w3.org/2000/svg">
<path fill-rule="evenodd" clip-rule="evenodd" d="M0 8C0 3.58172 3.58172 0 8 0C10.1217 0 12.1566 0.842855 13.6569 2.34315C15.1571 3.84344 16 5.87827 16 8C16 12.4183 12.4183 16 8 16C3.58172 16 0 12.4183 0 8ZM14.5 8C14.5 4.41015 11.5899 1.5 8 1.5C4.41183 1.50406 1.50406 4.41183 1.5 8C1.5 11.5899 4.41015 14.5 8 14.5C11.5899 14.5 14.5 11.5899 14.5 8ZM8.75 12V7.53788C8.75 7.12367 8.41421 6.78788 8 6.78788C7.58579 6.78788 7.25 7.12367 7.25 7.53788V12C7.25 12.4142 7.58579 12.75 8 12.75C8.41421 12.75 8.75 12.4142 8.75 12ZM8.92 4.87992C8.869 5.00094 8.79801 5.11252 8.71 5.21C8.4237 5.49645 7.9918 5.57962 7.61959 5.42C7.49856 5.36929 7.3871 5.29827 7.29 5.21C7.20168 5.11264 7.13052 5.001 7.07955 4.87984C6.97343 4.6377 6.97343 4.36222 7.07955 4.12008C7.12559 3.99642 7.19731 3.88392 7.29 3.79C7.53175 3.55817 7.87061 3.45741 8.19975 3.51949C8.26244 3.53078 8.32314 3.55118 8.37992 3.58004C8.4438 3.60162 8.50442 3.63185 8.5601 3.66988C8.61231 3.70703 8.66236 3.74714 8.71 3.79C8.89254 3.98176 8.99609 4.23528 9 4.5C9.00344 4.63116 8.97604 4.76129 8.92 4.87992Z" fill="#AAAAAA"/>
</svg>
