<svg width="24" height="24" viewBox="0 0 24 24" fill="none" xmlns="http://www.w3.org/2000/svg">
<path fill-rule="evenodd" clip-rule="evenodd" d="M2.57143 6H0V0H6V2.57143C6 4.46498 4.46498 6 2.57143 6ZM6 11.5714V9H0V15H2.57143C4.46498 15 6 13.465 6 11.5714ZM6 18V20.5714C6 22.465 4.46498 24 2.57143 24H0V18H6ZM15 2.57143V0H9V6H11.5714C13.465 6 15 4.46498 15 2.57143ZM15 9V11.5714C15 13.465 13.465 15 11.5714 15H9V9H15ZM15 20.5714V18H9V24H11.5714C13.465 24 15 22.465 15 20.5714ZM24 0V2.57143C24 4.46498 22.465 6 20.5714 6H18V0H24ZM24 11.5714V9H18V15H20.5714C22.465 15 24 13.465 24 11.5714ZM24 18V20.5714C24 22.465 22.465 24 20.5714 24H18V18H24Z" fill="#2A2A2A"/>
</svg>
