<svg width="78" height="78" viewBox="0 0 78 78" fill="none" xmlns="http://www.w3.org/2000/svg">
<path id="Shape Copy" fill-rule="evenodd" clip-rule="evenodd" d="M8.14286 19H0V0H19V8.14286C19 14.1391 14.1391 19 8.14286 19ZM19 38.1429V30H0V49H8.14286C14.1391 49 19 44.1391 19 38.1429ZM19 59V67.1429C19 73.1391 14.1391 78 8.14286 78H0V59H19ZM49 8.14286V0H30V19H38.1429C44.1391 19 49 14.1391 49 8.14286ZM49 30V38.1429C49 44.1391 44.1391 49 38.1429 49H30V30H49ZM49 67.1429V59H30V78H38.1429C44.1391 78 49 73.1391 49 67.1429ZM78 0V8.14286C78 14.1391 73.1391 19 67.1429 19H59V0H78ZM78 38.1429V30H59V49H67.1429C73.1391 49 78 44.1391 78 38.1429ZM78 59V67.1429C78 73.1391 73.1391 78 67.1429 78H59V59H78Z" fill="url(#paint0_linear_0_700)"/>
<defs>
<linearGradient id="paint0_linear_0_700" x1="0" y1="0" x2="0" y2="78" gradientUnits="userSpaceOnUse">
<stop stop-color="#E7E7E7"/>
<stop offset="1" stop-color="#AAAAAA"/>
</linearGradient>
</defs>
</svg>
