<svg width="13" height="15" viewBox="0 0 13 15" fill="none" xmlns="http://www.w3.org/2000/svg">
<path fill-rule="evenodd" clip-rule="evenodd" d="M3.01899 12.8774L12.1449 12.8627C11.9662 10.0293 10.3676 8.43884 7.34924 8.09121C2.82163 7.56975 3.54053 4.26633 3.32622 2.68045C3.1119 1.09457 0.957274 0.763871 0.783261 3.17923C0.609247 5.59459 1.69583 7.9572 2.35741 9.702C2.79846 10.8652 3.01899 11.9237 3.01899 12.8774Z" fill="#777777"/>
<path d="M7.89695 7.2458C9.519 7.2458 10.8339 6.0399 10.8339 4.55234C10.8339 3.06479 9.519 1.85889 7.89695 1.85889C6.27489 1.85889 4.95996 3.06479 4.95996 4.55234C4.95996 6.0399 6.27489 7.2458 7.89695 7.2458Z" fill="#777777"/>
</svg>
