<svg width="14" height="14" viewBox="0 0 14 14" fill="none" xmlns="http://www.w3.org/2000/svg">
<path fill-rule="evenodd" clip-rule="evenodd" d="M6.44584 3.92113e-08H7.51931C7.80403 -7.41705e-05 8.07712 0.105189 8.27845 0.292617C8.47979 0.480045 8.59286 0.734274 8.59278 0.999337V12.9914C8.59286 13.2564 8.47979 13.5107 8.27845 13.6981C8.07712 13.8855 7.80403 13.9908 7.51931 13.9907H6.44584C6.16111 13.9908 5.88802 13.8855 5.68669 13.6981C5.48536 13.5107 5.37228 13.2564 5.37236 12.9914V0.999337C5.37228 0.734274 5.48536 0.480045 5.68669 0.292617C5.88802 0.105189 6.16111 -7.41705e-05 6.44584 3.92113e-08ZM3.22542 5.99602V12.9914C3.2255 13.2564 3.11243 13.5107 2.9111 13.6981C2.70976 13.8855 2.43668 13.9908 2.15195 13.9907H1.07848C0.79375 13.9908 0.520662 13.8855 0.31933 13.6981C0.117997 13.5107 0.00492525 13.2564 0.00500492 12.9914V5.99602C0.00492525 5.73096 0.117997 5.47673 0.31933 5.2893C0.520662 5.10187 0.79375 4.99661 1.07848 4.99669H2.15195C2.43668 4.99661 2.70976 5.10187 2.9111 5.2893C3.11243 5.47673 3.2255 5.73096 3.22542 5.99602ZM12.8867 7.9947H11.8132C11.5285 7.99462 11.2554 8.09988 11.054 8.28731C10.8527 8.47474 10.7396 8.72897 10.7397 8.99403V12.9914C10.7396 13.2564 10.8527 13.5107 11.054 13.6981C11.2554 13.8855 11.5285 13.9908 11.8132 13.9907H12.8867C13.1714 13.991 13.4446 13.8857 13.646 13.6983C13.8474 13.5108 13.9604 13.2565 13.9601 12.9914V8.99403C13.9604 8.72892 13.8474 8.47459 13.646 8.28713C13.4446 8.09966 13.1714 7.99445 12.8867 7.9947Z" fill="#AAAAAA"/>
</svg>
