<svg width="285" height="43" viewBox="0 0 285 43" fill="none" xmlns="http://www.w3.org/2000/svg">
<path fill-rule="evenodd" clip-rule="evenodd" d="M157.668 31.6809C158.001 31.6809 158.272 31.4106 158.272 31.0771V15.1522C158.272 14.9921 158.208 14.8385 158.095 14.7253C157.982 14.6121 157.828 14.5485 157.668 14.5485H154.865C154.532 14.5485 154.261 14.8188 154.261 15.1522V16.634C153.59 15.8946 152.763 15.3138 151.839 14.9335C150.866 14.5404 149.825 14.3442 148.775 14.3562C147.214 14.3298 145.673 14.7055 144.3 15.4471C143.003 16.1554 141.935 17.218 141.22 18.5108C140.458 19.9235 140.076 21.51 140.113 23.1147C140.078 24.7243 140.459 26.3158 141.22 27.7348C141.931 29.0346 143 30.1034 144.3 30.8147C145.673 31.5564 147.214 31.9321 148.775 31.9055C149.88 31.919 150.976 31.7117 151.999 31.2959C152.958 30.9011 153.801 30.2723 154.454 29.4671V31.0771C154.454 31.4106 154.724 31.6809 155.058 31.6809H157.668ZM154.326 23.1147C154.389 24.5508 153.868 25.9514 152.882 26.9968H152.882C151.923 27.9795 150.596 28.5149 149.224 28.4727C147.857 28.517 146.534 27.9809 145.583 26.9968C144.606 25.9468 144.091 24.5479 144.155 23.1147C144.091 21.6816 144.606 20.2828 145.583 19.2328C146.534 18.249 147.857 17.713 149.224 17.757C150.596 17.715 151.923 18.2504 152.882 19.2328C153.868 20.2782 154.389 21.6787 154.326 23.1147Z" fill="#2A2A2A"/>
<path fill-rule="evenodd" clip-rule="evenodd" d="M42.2652 21.1314C42.2461 20.1786 41.5264 19.3863 40.5798 19.2761C39.6332 19.1658 38.7507 19.7715 38.5131 20.6944C39.5541 15.3848 36.8371 10.0504 31.9303 7.77032C27.0236 5.49027 21.1943 6.85343 17.8074 11.0729C19.4631 9.01103 19.4406 6.06921 17.7538 4.0328C16.0669 1.99638 13.1807 1.42681 10.8467 2.66975C17.3921 -0.974885 25.3778 -0.882285 31.837 2.91314C38.2962 6.70857 42.2636 13.6396 42.2652 21.1314L42.2652 21.1314Z" fill="#00D3F1"/>
<path fill-rule="evenodd" clip-rule="evenodd" d="M6.64375 32.827C6.64255 35.3916 7.94852 37.7799 10.1083 39.1628C3.75068 35.2751 -0.0894643 28.3264 0.00158373 20.875C0.0926318 13.4235 4.10142 6.57071 10.5521 2.83954C8.66058 4.00046 7.63895 6.17369 7.95181 8.37089C8.26468 10.5681 9.8523 12.3698 11.9927 12.9566C14.1331 13.5434 16.4176 12.8033 17.8072 11.0729C13.9172 15.9183 14.4708 22.9546 19.0708 27.132C16.8438 25.2131 13.7027 24.7681 11.0303 25.9928C8.35781 27.2175 6.6442 29.8873 6.64375 32.827Z" fill="#E7285A"/>
<path fill-rule="evenodd" clip-rule="evenodd" d="M42.2629 21.2673C42.2146 28.8057 38.1543 35.7476 31.6074 39.485C25.0605 43.2224 17.0184 43.1894 10.5024 39.3983C13.8397 41.2558 18.0393 40.3166 20.2674 37.2144C22.4955 34.1123 22.0442 29.8326 19.2181 27.2634C22.3601 30.021 26.7299 30.9031 30.6955 29.5803C34.6612 28.2575 37.6264 24.9287 38.4836 20.837C38.4636 20.9468 38.4537 21.0583 38.4542 21.1699C38.4537 22.2038 39.2776 23.0495 40.3111 23.0759C41.3446 23.1023 42.2107 22.2998 42.2629 21.2673H42.2629Z" fill="#FFAD00"/>
<path fill-rule="evenodd" clip-rule="evenodd" d="M17.8073 11.0729C16.4172 12.8013 14.1338 13.5399 11.9948 12.9529C9.85572 12.3659 8.26909 10.5653 7.95587 8.36946C7.64265 6.17358 8.66259 4.00123 10.5522 2.83959C10.6473 2.77845 10.7469 2.7241 10.8466 2.66976C13.1806 1.4268 16.0668 1.99636 17.7537 4.03278C19.4406 6.0692 19.463 9.01102 17.8073 11.0729Z" fill="#3A3457"/>
<path fill-rule="evenodd" clip-rule="evenodd" d="M21.6791 32.827C21.679 35.4925 20.2679 37.9587 17.9702 39.3096C15.6724 40.6606 12.8312 40.6943 10.502 39.3983C10.3684 39.3236 10.2371 39.2444 10.108 39.1628C7.738 37.6457 6.41327 34.9324 6.67472 32.1306C6.93617 29.3287 8.74004 26.9073 11.3498 25.8549C13.9596 24.8026 16.9386 25.2953 19.0705 27.132C19.1203 27.1751 19.1679 27.2181 19.2177 27.2634C20.7878 28.6866 21.682 30.7079 21.6791 32.827Z" fill="#A5141F"/>
<path fill-rule="evenodd" clip-rule="evenodd" d="M42.2651 21.1314V21.1699C42.2651 21.2016 42.2651 21.2356 42.2628 21.2672C42.2106 22.2998 41.3445 23.1023 40.311 23.0759C39.2775 23.0495 38.4536 22.2037 38.4541 21.1699C38.4536 21.0583 38.4635 20.9468 38.4835 20.837C38.4926 20.7872 38.5017 20.7396 38.513 20.6943C38.7505 19.7715 39.6331 19.1658 40.5797 19.276C41.5262 19.3863 42.246 20.1786 42.2651 21.1314L42.2651 21.1314Z" fill="#007A4E"/>
<path fill-rule="evenodd" clip-rule="evenodd" d="M54.3979 26.0597C55.4327 27.812 56.9316 29.2443 58.7291 30.1983L58.7291 30.1984C62.6175 32.1874 67.2246 32.1874 71.1129 30.1984C72.9071 29.2469 74.4054 27.8208 75.4441 26.0757C76.5037 24.2793 77.0477 22.2257 77.0164 20.1404C77.0476 18.0551 76.5036 16.0015 75.4441 14.2051C74.4053 12.46 72.9071 11.0339 71.1129 10.0824C67.2246 8.09332 62.6175 8.09332 58.7291 10.0824C56.9316 11.0363 55.4326 12.4686 54.3979 14.221C53.3422 16.0131 52.7984 18.0606 52.8257 20.1403C52.7984 22.2201 53.3422 24.2676 54.3979 26.0597ZM71.7868 24.1988C71.1259 25.3836 70.1483 26.3611 68.9634 27.022L68.9634 27.022C66.4369 28.3695 63.4051 28.3695 60.8786 27.022C59.6935 26.3615 58.7158 25.3839 58.0551 24.1988C57.3626 22.9596 57.0086 21.5598 57.0286 20.1404C57.0087 18.7209 57.3627 17.3212 58.0551 16.0819C58.716 14.897 59.6936 13.9193 60.8786 13.2584C63.4051 11.9109 66.4369 11.9109 68.9634 13.2584C70.1481 13.9197 71.1256 14.8972 71.7868 16.0819C72.4791 17.3213 72.8331 18.7209 72.8134 20.1404C72.8332 21.5598 72.4792 22.9595 71.7868 24.1988Z" fill="#2A2A2A"/>
<path fill-rule="evenodd" clip-rule="evenodd" d="M96.1469 15.1613V31.0861C96.1469 31.2463 96.0833 31.3998 95.9701 31.5131C95.8568 31.6263 95.7033 31.6899 95.5431 31.6899H92.9328C92.7727 31.6899 92.6191 31.6263 92.5059 31.5131C92.3926 31.3998 92.329 31.2463 92.329 31.0861V29.5083C91.6795 30.2842 90.8547 30.8946 89.9227 31.289C88.9397 31.7101 87.8801 31.9231 86.8106 31.9146C84.522 31.9146 82.72 31.2783 81.4049 30.0056C80.0894 28.7332 79.4316 26.8457 79.4316 24.3431V15.1613C79.4316 14.8278 79.702 14.5575 80.0354 14.5575H82.8382C83.1717 14.5575 83.442 14.8278 83.442 15.1613V23.7977C83.442 25.3375 83.7896 26.4871 84.4848 27.2464C85.2616 28.0392 86.3447 28.4549 87.4524 28.3853C88.7289 28.4474 89.9714 27.9633 90.8694 27.0539C91.714 26.1665 92.1364 24.8886 92.1365 23.2201V15.1613C92.1365 15.0011 92.2001 14.8476 92.3133 14.7343C92.4266 14.6211 92.5801 14.5575 92.7403 14.5575H95.5431C95.7032 14.5575 95.8568 14.6211 95.9701 14.7343C96.0833 14.8476 96.1469 15.0011 96.1469 15.1613Z" fill="#2A2A2A"/>
<path fill-rule="evenodd" clip-rule="evenodd" d="M108.143 30.0935C108.25 30.3611 108.152 30.6669 107.911 30.8235C107.503 31.0769 107.061 31.2704 106.599 31.398C105.905 31.5934 105.187 31.6906 104.465 31.687C102.583 31.687 101.129 31.195 100.102 30.2111C99.0753 29.2276 98.5619 27.7946 98.562 25.9121V9.19436C98.562 8.8609 98.8323 8.59058 99.1658 8.59058H101.969C102.302 8.59058 102.572 8.8609 102.572 9.19436V14.4584H106.557C106.717 14.4584 106.87 14.522 106.984 14.6353C107.097 14.7485 107.16 14.9021 107.16 15.0622V17.0628C107.16 17.3963 106.89 17.6666 106.557 17.6666H102.572V25.8157C102.524 26.5092 102.748 27.1943 103.198 27.7246C103.661 28.1817 104.297 28.4207 104.947 28.3823C105.526 28.3942 106.101 28.2738 106.626 28.0302C106.778 27.955 106.953 27.9465 107.111 28.0068C107.269 28.0672 107.394 28.1908 107.456 28.3476L108.143 30.0935Z" fill="#2A2A2A"/>
<path fill-rule="evenodd" clip-rule="evenodd" d="M120.447 14.9856V17.4965C120.447 17.6648 120.376 17.8251 120.252 17.939C120.128 18.0529 119.962 18.1102 119.794 18.0971C119.699 18.0905 119.606 18.0872 119.517 18.0872C118.161 18.0086 116.834 18.5033 115.86 19.4507C114.982 20.3599 114.544 21.67 114.544 23.3809V31.0866C114.544 31.4201 114.274 31.6904 113.94 31.6904H111.137C110.977 31.6904 110.824 31.6268 110.711 31.5135C110.597 31.4003 110.534 31.2467 110.534 31.0866V15.1617C110.534 15.0016 110.597 14.848 110.711 14.7348C110.824 14.6216 110.977 14.5579 111.137 14.5579H113.748C113.908 14.5579 114.061 14.6216 114.175 14.7348C114.288 14.848 114.352 15.0016 114.352 15.1617V17.0606C115.42 15.3985 117.239 14.5052 119.809 14.3808C119.975 14.3725 120.137 14.4325 120.258 14.5467C120.378 14.6609 120.447 14.8195 120.447 14.9856Z" fill="#2A2A2A"/>
<path fill-rule="evenodd" clip-rule="evenodd" d="M138.527 27.217L136.901 25.881C136.644 25.6716 136.266 25.7085 136.055 25.9637C135.061 27.1313 133.679 27.8998 132.163 28.1273C131.057 28.3553 129.91 28.2878 128.838 27.9316C127.874 27.5907 127.056 26.93 126.52 26.0597L138.521 21.4368C138.803 21.327 138.961 21.0277 138.893 20.7335C138.607 19.3516 137.981 18.0627 137.072 16.9833C136.12 15.8637 134.873 15.0337 133.473 14.588C132.02 14.1298 130.476 14.0384 128.979 14.3218C127.414 14.5713 125.94 15.224 124.703 16.2158C123.532 17.164 122.648 18.4199 122.15 19.8425C121.631 21.3314 121.514 22.9308 121.811 24.4793C122.062 26.0508 122.733 27.5253 123.753 28.7469C124.757 29.9302 126.081 30.7995 127.566 31.2507C130.562 32.0789 133.765 31.6668 136.454 30.1072C137.326 29.5786 138.074 28.868 138.646 28.0241C138.82 27.7645 138.768 27.4155 138.527 27.217ZM125.481 22.5323C125.366 21.3726 125.641 20.2074 126.264 19.2224C127.012 18.1038 128.203 17.3598 129.536 17.1794C130.614 16.9578 131.736 17.1043 132.721 17.5953C133.425 17.951 134.023 18.4851 134.456 19.1443C134.558 19.2977 134.585 19.4891 134.529 19.6646C134.473 19.8402 134.34 19.9808 134.169 20.0471L126.3 23.047C126.123 23.1145 125.924 23.0947 125.763 22.9935C125.602 22.8924 125.498 22.7217 125.481 22.5323Z" fill="#2A2A2A"/>
<path fill-rule="evenodd" clip-rule="evenodd" d="M165.178 30.5647C163.805 29.8528 162.66 28.7688 161.874 27.4367C161.072 26.06 160.661 24.4901 160.687 22.8968C160.66 21.3086 161.071 19.7435 161.874 18.3731C162.661 17.0514 163.799 15.974 165.162 15.2611C166.643 14.4936 168.291 14.1077 169.959 14.1384C171.502 14.1041 173.03 14.457 174.402 15.1649C175.463 15.7241 176.353 16.5595 176.978 17.5829C177.061 17.7215 177.085 17.8876 177.044 18.044C177.004 18.2004 176.902 18.334 176.762 18.4149L174.676 19.6321C174.411 19.7853 174.073 19.7159 173.89 19.4708C173.48 18.9179 172.954 18.4612 172.349 18.1326C170.324 17.0937 167.864 17.4404 166.205 18.9987C165.195 20.0379 164.661 21.4492 164.729 22.8968C164.66 24.3415 165.188 25.7511 166.189 26.7949C167.854 28.3538 170.318 28.7003 172.349 27.6611C172.954 27.3329 173.48 26.8763 173.89 26.3233C174.073 26.0781 174.411 26.0087 174.676 26.1619L176.756 27.3754C176.897 27.4569 176.999 27.5918 177.039 27.7495C177.079 27.9072 177.054 28.0744 176.968 28.2131C176.329 29.2362 175.433 30.0745 174.37 30.6449C173.012 31.3609 171.494 31.7197 169.959 31.6877C168.297 31.7148 166.654 31.3289 165.178 30.5647Z" fill="#2A2A2A"/>
<path fill-rule="evenodd" clip-rule="evenodd" d="M243.861 30.5647C242.488 29.8528 241.343 28.7688 240.557 27.4367C239.754 26.06 239.344 24.4901 239.369 22.8968C239.343 21.3086 239.753 19.7435 240.557 18.3731C241.344 17.0514 242.482 15.974 243.845 15.2611C245.326 14.4936 246.974 14.1077 248.641 14.1384C250.185 14.1041 251.713 14.457 253.085 15.1649C254.146 15.7241 255.036 16.5595 255.661 17.5829C255.744 17.7215 255.768 17.8876 255.727 18.044C255.687 18.2004 255.585 18.334 255.445 18.4149L253.358 19.6321C253.094 19.7853 252.756 19.7159 252.573 19.4708C252.163 18.9179 251.637 18.4612 251.031 18.1326C249.006 17.0937 246.547 17.4404 244.888 18.9987C243.878 20.0379 243.343 21.4492 243.412 22.8968C243.342 24.3415 243.87 25.7511 244.872 26.7949C246.537 28.3538 249.001 28.7003 251.031 27.6611C251.637 27.3329 252.163 26.8763 252.573 26.3233C252.756 26.0781 253.094 26.0087 253.359 26.1619L255.439 27.3754C255.58 27.4569 255.682 27.5918 255.722 27.7495C255.762 27.9072 255.736 28.0744 255.651 28.2131C255.012 29.2362 254.116 30.0745 253.053 30.6449C251.694 31.3609 250.176 31.7197 248.641 31.6877C246.98 31.7148 245.337 31.3289 243.861 30.5647Z" fill="#2A2A2A"/>
<path fill-rule="evenodd" clip-rule="evenodd" d="M194.325 16.2578C195.629 17.5202 196.282 19.3917 196.282 21.8723V31.086C196.282 31.4194 196.012 31.6898 195.678 31.6898H192.876C192.542 31.6898 192.272 31.4194 192.272 31.086V22.3856C192.272 20.8888 191.919 19.7606 191.213 19.0008C190.418 18.2059 189.319 17.7911 188.197 17.8619C186.896 17.7941 185.627 18.2774 184.7 19.1933C183.844 20.0813 183.417 21.3594 183.417 23.0274V31.086C183.417 31.4194 183.146 31.6898 182.813 31.6898H180.01C179.85 31.6898 179.696 31.6261 179.583 31.5129C179.47 31.3997 179.406 31.2461 179.406 31.086V9.18539C179.406 8.85193 179.677 8.5816 180.01 8.5816H182.813C182.973 8.5816 183.127 8.64521 183.24 8.75845C183.353 8.87168 183.417 9.02525 183.417 9.18539V16.5468C184.101 15.8267 184.94 15.2725 185.871 14.9264C186.913 14.5402 188.017 14.3499 189.128 14.3651C191.044 14.2743 192.916 14.9562 194.325 16.2578Z" fill="#2A2A2A"/>
<path fill-rule="evenodd" clip-rule="evenodd" d="M204.552 30.198C202.767 29.2454 201.28 27.8188 200.253 26.0753C199.203 24.2756 198.665 22.2233 198.697 20.14C198.666 18.0537 199.21 15.9991 200.269 14.2017C201.305 12.4596 202.797 11.0339 204.584 10.079C206.473 9.06952 208.587 8.55622 210.728 8.5872C212.455 8.56544 214.168 8.89275 215.765 9.54948C217.056 10.0868 218.224 10.8809 219.198 11.8836C219.312 12.0002 219.374 12.1574 219.37 12.3202C219.367 12.483 219.299 12.6376 219.181 12.7496L217.348 14.4726C217.117 14.6916 216.754 14.691 216.523 14.4713C215.029 13.0093 213.011 12.2072 210.921 12.2444C209.477 12.2206 208.052 12.5686 206.782 13.2551C205.587 13.9055 204.597 14.8781 203.926 16.0623C203.23 17.3071 202.876 18.714 202.9 20.14C202.876 21.565 203.23 22.9709 203.927 24.2144C204.597 25.3988 205.586 26.3714 206.782 27.0216C208.052 27.7082 209.477 28.0562 210.921 28.0322C213.015 28.0682 215.034 27.2564 216.52 25.7812C216.752 25.5581 217.119 25.5575 217.351 25.7799L219.186 27.5272C219.303 27.6395 219.37 27.7938 219.373 27.956C219.376 28.1182 219.314 28.2747 219.2 28.3908C218.221 29.3968 217.047 30.1919 215.749 30.7275C214.146 31.3832 212.428 31.7105 210.696 31.6898C208.555 31.7206 206.441 31.2073 204.552 30.198Z" fill="#2A2A2A"/>
<rect x="221.823" y="14.5575" width="4.0104" height="17.1324" rx="1.38516" fill="#2A2A2A"/>
<path fill-rule="evenodd" clip-rule="evenodd" d="M238.162 14.9826V17.4935C238.161 17.6618 238.09 17.8221 237.966 17.936C237.842 18.05 237.677 18.1073 237.509 18.0942C237.413 18.0875 237.321 18.0842 237.231 18.0842C235.875 18.0056 234.548 18.5004 233.574 19.4478C232.697 20.357 232.258 21.667 232.258 23.378V31.0836C232.258 31.4171 231.988 31.6874 231.655 31.6874H228.852C228.692 31.6874 228.538 31.6238 228.425 31.5106C228.312 31.3973 228.248 31.2437 228.248 31.0836V15.1588C228.248 14.9986 228.312 14.845 228.425 14.7318C228.538 14.6186 228.692 14.555 228.852 14.555H231.462C231.622 14.555 231.776 14.6186 231.889 14.7318C232.002 14.845 232.066 14.9986 232.066 15.1588V17.0577C233.135 15.3955 234.954 14.5022 237.524 14.3778C237.689 14.3696 237.851 14.4295 237.972 14.5437C238.093 14.658 238.161 14.8165 238.162 14.9826Z" fill="#2A2A2A"/>
<path fill-rule="evenodd" clip-rule="evenodd" d="M259.655 30.2226C258.66 29.2497 258.163 27.8755 258.163 26.1001V9.19096C258.163 9.03083 258.226 8.87725 258.339 8.76401C258.453 8.65078 258.606 8.58716 258.766 8.58716H261.569C261.903 8.58716 262.173 8.85749 262.173 9.19095V25.8112C262.173 27.5226 262.975 28.3781 264.579 28.3779C264.835 28.3791 265.091 28.3522 265.341 28.2978C265.516 28.2637 265.697 28.3074 265.838 28.4175C265.978 28.5277 266.063 28.6933 266.072 28.8715L266.188 30.799C266.205 31.0823 266.023 31.3395 265.75 31.4182C265.119 31.5968 264.465 31.6858 263.809 31.6825C262.034 31.6825 260.649 31.1958 259.655 30.2226Z" fill="#2A2A2A"/>
<path fill-rule="evenodd" clip-rule="evenodd" d="M283.665 27.2098L282.038 25.8738C281.781 25.6644 281.403 25.7014 281.192 25.9565C280.198 27.1241 278.816 27.8926 277.3 28.1201C276.194 28.3481 275.047 28.2806 273.975 27.9245C273.011 27.5835 272.194 26.9229 271.658 26.0525L283.659 21.4296C283.94 21.3198 284.098 21.0205 284.03 20.7263C283.744 19.3444 283.118 18.0555 282.209 16.9761C281.257 15.8565 280.01 15.0265 278.61 14.5808C277.157 14.1226 275.613 14.0312 274.116 14.3146C272.551 14.5641 271.077 15.2168 269.841 16.2085C268.669 17.1568 267.785 18.4127 267.287 19.8353C266.768 21.3242 266.652 22.9236 266.948 24.4721C267.199 26.0436 267.87 27.5181 268.89 28.7396C269.894 29.923 271.218 30.7923 272.703 31.2435C275.699 32.0717 278.902 31.6596 281.591 30.1C282.463 29.5714 283.211 28.8608 283.783 28.0168C283.957 27.7573 283.906 27.4083 283.665 27.2098ZM270.733 23.2748C270.413 21.8863 270.654 20.4279 271.401 19.2151C272.149 18.0966 273.34 17.3526 274.674 17.1722C275.752 16.9506 276.873 17.097 277.858 17.5881C278.789 18.0607 279.53 18.8385 279.957 19.7917L270.738 23.3065L270.733 23.2748Z" fill="#2A2A2A"/>
<path fill-rule="evenodd" clip-rule="evenodd" d="M223.828 10.7555C225.024 10.7555 225.993 9.78625 225.993 8.59061C225.993 7.39497 225.024 6.42572 223.828 6.42572C222.632 6.42572 221.663 7.39497 221.663 8.59061C221.663 9.78625 222.632 10.7555 223.828 10.7555Z" fill="#2A2A2A"/>
</svg>
