<svg width="14" height="13" viewBox="0 0 14 13" fill="none" xmlns="http://www.w3.org/2000/svg">
<path fill-rule="evenodd" clip-rule="evenodd" d="M6.80413 4.536C8.05671 4.536 9.07213 3.52058 9.07213 2.268C9.07213 1.01542 8.05671 0 6.80413 0C5.55155 0 4.53613 1.01542 4.53613 2.268C4.53613 3.52058 5.55155 4.536 6.80413 4.536Z" fill="#A4A4A4"/>
<path fill-rule="evenodd" clip-rule="evenodd" d="M2.268 12.6C3.52058 12.6 4.536 11.5845 4.536 10.332C4.536 9.07938 3.52058 8.06396 2.268 8.06396C1.01542 8.06396 0 9.07938 0 10.332C0 11.5845 1.01542 12.6 2.268 12.6Z" fill="#A4A4A4"/>
<path fill-rule="evenodd" clip-rule="evenodd" d="M11.3398 12.6C12.5924 12.6 13.6078 11.5845 13.6078 10.332C13.6078 9.07938 12.5924 8.06396 11.3398 8.06396C10.0872 8.06396 9.07178 9.07938 9.07178 10.332C9.07178 11.5845 10.0872 12.6 11.3398 12.6Z" fill="#A4A4A4"/>
</svg>
