<svg width="14" height="14" viewBox="0 0 14 14" fill="none" xmlns="http://www.w3.org/2000/svg">
<path fill-rule="evenodd" clip-rule="evenodd" d="M1.5 3.5H0V0H3.5V1.5C3.5 2.60457 2.60457 3.5 1.5 3.5ZM3.5 6.75V5.25H0V8.75H1.5C2.60457 8.75 3.5 7.85457 3.5 6.75ZM3.5 10.5V12C3.5 13.1046 2.60457 14 1.5 14H0V10.5H3.5ZM8.75 1.5V0H5.25V3.5H6.75C7.85457 3.5 8.75 2.60457 8.75 1.5ZM8.75 5.25V6.75C8.75 7.85457 7.85457 8.75 6.75 8.75H5.25V5.25H8.75ZM8.75 12V10.5H5.25V14H6.75C7.85457 14 8.75 13.1046 8.75 12ZM14 0V1.5C14 2.60457 13.1046 3.5 12 3.5H10.5V0H14ZM14 6.75V5.25H10.5V8.75H12C13.1046 8.75 14 7.85457 14 6.75ZM14 10.5V12C14 13.1046 13.1046 14 12 14H10.5V10.5H14Z" fill="#AAAAAA"/>
</svg>
