<svg width="15" height="17" viewBox="0 0 15 17" fill="none" xmlns="http://www.w3.org/2000/svg">
<path fill-rule="evenodd" clip-rule="evenodd" d="M2.94799 16.0281L14.8818 16.0076C14.6482 12.0409 12.5578 9.81419 8.61062 9.3275C2.68991 8.59746 3.63 3.97267 3.34974 1.75244C3.06948 -0.467801 0.251895 -0.930776 0.0243391 2.45073C-0.203217 5.83224 1.21769 9.13988 2.08284 11.5826C2.6596 13.2111 2.94799 14.6929 2.94799 16.0281Z" fill="#AAAAAA"/>
<path d="M9.32694 8.14373C11.4481 8.14373 13.1676 6.45547 13.1676 4.37289C13.1676 2.29031 11.4481 0.602051 9.32694 0.602051C7.20579 0.602051 5.48627 2.29031 5.48627 4.37289C5.48627 6.45547 7.20579 8.14373 9.32694 8.14373Z" fill="#AAAAAA"/>
</svg>
