<svg width="406" height="45" viewBox="0 0 406 45" fill="none" xmlns="http://www.w3.org/2000/svg">
<path fill-rule="evenodd" clip-rule="evenodd" d="M1.99999 0C0.895421 0 0 0.895431 0 2V43C0 44.1046 0.895431 45 2 45H404C405.105 45 406 44.1046 406 43V2C406 0.89543 405.105 0 404 0H1.99999Z" fill="#4285F4"/>
<path fill-rule="evenodd" clip-rule="evenodd" d="M4.672 4C4.30087 4 4 4.30086 4 4.672V40.328C4 40.6991 4.30086 41 4.672 41H40.328C40.6991 41 41 40.6991 41 40.328V4.672C41 4.30087 40.6991 4 40.328 4H4.672Z" fill="white"/>
<path fill-rule="evenodd" clip-rule="evenodd" d="M22.8305 17.3596C24.5054 17.3596 25.6353 18.0831 26.2794 18.6877L28.7968 16.2298C27.2507 14.7928 25.2388 13.9107 22.8305 13.9107C19.3419 13.9107 16.3291 15.9127 14.8623 18.8264L17.7463 21.0662C18.4698 18.9156 20.4718 17.3596 22.8305 17.3596Z" fill="#EA4335"/>
<path fill-rule="evenodd" clip-rule="evenodd" d="M31.3929 23.0286C31.3929 22.2952 31.3335 21.76 31.2046 21.205H22.8301V24.5152H27.7458C27.6467 25.3378 27.1115 26.5766 25.9222 27.4091L28.7369 29.5895C30.4217 28.0335 31.3929 25.7441 31.3929 23.0286Z" fill="#4285F4"/>
<path fill-rule="evenodd" clip-rule="evenodd" d="M17.756 24.5945C17.5677 24.0395 17.4587 23.4448 17.4587 22.8303C17.4587 22.2159 17.5677 21.6212 17.7461 21.0662L14.8621 18.8264C14.2575 20.0355 13.9106 21.3933 13.9106 22.8303C13.9106 24.2674 14.2575 25.6252 14.8621 26.8343L17.756 24.5945Z" fill="#FBBC05"/>
<path fill-rule="evenodd" clip-rule="evenodd" d="M22.8304 31.75C25.2387 31.75 27.2605 30.9572 28.7372 29.5895L25.9225 27.4091C25.1693 27.9344 24.1584 28.3011 22.8304 28.3011C20.4716 28.3011 18.4697 26.7451 17.7561 24.5945L14.8721 26.8343C16.3389 29.7481 19.3418 31.75 22.8304 31.75Z" fill="#34A853"/>
<path d="M126.425 28.136C125.28 28.136 124.283 27.8923 123.433 27.405C122.583 26.9063 121.931 26.198 121.478 25.28C121.024 24.3507 120.798 23.257 120.798 21.999C120.798 20.7523 121.024 19.67 121.478 18.752C121.931 17.8227 122.583 17.1143 123.433 16.627C124.283 16.1283 125.28 15.879 126.425 15.879C127.173 15.879 127.881 15.998 128.55 16.236C129.218 16.4627 129.802 16.797 130.301 17.239C130.516 17.409 130.624 17.6357 130.624 17.919C130.624 18.123 130.567 18.2987 130.454 18.446C130.34 18.582 130.204 18.65 130.046 18.65C129.853 18.65 129.666 18.5763 129.485 18.429C128.941 18.021 128.442 17.7377 127.989 17.579C127.547 17.409 127.042 17.324 126.476 17.324C125.229 17.324 124.271 17.7263 123.603 18.531C122.934 19.3357 122.6 20.4917 122.6 21.999C122.6 23.5177 122.934 24.6793 123.603 25.484C124.271 26.2887 125.229 26.691 126.476 26.691C127.02 26.691 127.513 26.606 127.955 26.436C128.408 26.266 128.918 25.9827 129.485 25.586C129.711 25.4387 129.898 25.365 130.046 25.365C130.204 25.365 130.34 25.4387 130.454 25.586C130.567 25.722 130.624 25.892 130.624 26.096C130.624 26.3793 130.516 26.606 130.301 26.776C129.802 27.218 129.218 27.558 128.55 27.796C127.881 28.0227 127.173 28.136 126.425 28.136ZM135.944 28.119C135.128 28.119 134.409 27.9433 133.785 27.592C133.173 27.2407 132.697 26.742 132.357 26.096C132.029 25.4387 131.864 24.6793 131.864 23.818C131.864 22.9453 132.029 22.186 132.357 21.54C132.697 20.8827 133.173 20.3783 133.785 20.027C134.409 19.6757 135.128 19.5 135.944 19.5C136.76 19.5 137.474 19.6757 138.086 20.027C138.71 20.3783 139.186 20.8827 139.514 21.54C139.854 22.186 140.024 22.9453 140.024 23.818C140.024 24.6793 139.854 25.4387 139.514 26.096C139.186 26.742 138.71 27.2407 138.086 27.592C137.474 27.9433 136.76 28.119 135.944 28.119ZM135.944 26.759C136.704 26.759 137.282 26.5097 137.678 26.011C138.086 25.5123 138.29 24.7813 138.29 23.818C138.29 22.866 138.086 22.1407 137.678 21.642C137.27 21.132 136.692 20.877 135.944 20.877C135.196 20.877 134.618 21.132 134.21 21.642C133.802 22.1407 133.598 22.866 133.598 23.818C133.598 24.7813 133.797 25.5123 134.193 26.011C134.601 26.5097 135.185 26.759 135.944 26.759ZM146.407 19.5C148.39 19.5 149.382 20.6163 149.382 22.849V27.269C149.382 27.5297 149.303 27.7337 149.144 27.881C148.997 28.017 148.787 28.085 148.515 28.085C148.254 28.085 148.045 28.0113 147.886 27.864C147.739 27.7167 147.665 27.5183 147.665 27.269V22.934C147.665 22.2313 147.523 21.7157 147.24 21.387C146.968 21.0583 146.537 20.894 145.948 20.894C145.257 20.894 144.701 21.1093 144.282 21.54C143.863 21.9707 143.653 22.5487 143.653 23.274V27.269C143.653 27.5183 143.574 27.7167 143.415 27.864C143.268 28.0113 143.064 28.085 142.803 28.085C142.542 28.085 142.333 28.0113 142.174 27.864C142.015 27.7167 141.936 27.5183 141.936 27.269V20.35C141.936 20.112 142.015 19.9193 142.174 19.772C142.344 19.6133 142.554 19.534 142.803 19.534C143.052 19.534 143.251 19.6077 143.398 19.755C143.545 19.9023 143.619 20.095 143.619 20.333V21.03C143.891 20.5313 144.271 20.1517 144.758 19.891C145.245 19.6303 145.795 19.5 146.407 19.5ZM155.794 26.776C156.043 26.7987 156.219 26.8667 156.321 26.98C156.434 27.082 156.491 27.2293 156.491 27.422C156.491 27.6487 156.4 27.8243 156.219 27.949C156.049 28.0623 155.794 28.1077 155.454 28.085L154.995 28.051C154.077 27.983 153.391 27.7053 152.938 27.218C152.485 26.7193 152.258 25.9883 152.258 25.025V21.03H151.238C150.739 21.03 150.49 20.809 150.49 20.367C150.49 20.163 150.552 20.0043 150.677 19.891C150.813 19.7663 151 19.704 151.238 19.704H152.258V17.953C152.258 17.6923 152.332 17.4883 152.479 17.341C152.638 17.1937 152.847 17.12 153.108 17.12C153.369 17.12 153.578 17.1937 153.737 17.341C153.896 17.4883 153.975 17.6923 153.975 17.953V19.704H155.658C155.896 19.704 156.077 19.7663 156.202 19.891C156.338 20.0043 156.406 20.163 156.406 20.367C156.406 20.5823 156.338 20.7467 156.202 20.86C156.077 20.9733 155.896 21.03 155.658 21.03H153.975V25.144C153.975 25.6767 154.083 26.0677 154.298 26.317C154.525 26.5663 154.865 26.708 155.318 26.742L155.794 26.776ZM158.591 28.085C158.342 28.085 158.132 28.017 157.962 27.881C157.804 27.745 157.724 27.541 157.724 27.269V20.367C157.724 20.095 157.804 19.891 157.962 19.755C158.132 19.6077 158.342 19.534 158.591 19.534C158.841 19.534 159.045 19.6077 159.203 19.755C159.362 19.891 159.441 20.095 159.441 20.367V27.269C159.441 27.541 159.362 27.745 159.203 27.881C159.045 28.017 158.841 28.085 158.591 28.085ZM158.591 17.868C158.263 17.868 158.002 17.7773 157.809 17.596C157.617 17.4147 157.52 17.1767 157.52 16.882C157.52 16.5873 157.617 16.355 157.809 16.185C158.002 16.0037 158.263 15.913 158.591 15.913C158.909 15.913 159.164 16.0037 159.356 16.185C159.56 16.355 159.662 16.5873 159.662 16.882C159.662 17.1767 159.566 17.4147 159.373 17.596C159.181 17.7773 158.92 17.868 158.591 17.868ZM166.312 19.5C168.296 19.5 169.287 20.6163 169.287 22.849V27.269C169.287 27.5297 169.208 27.7337 169.049 27.881C168.902 28.017 168.692 28.085 168.42 28.085C168.16 28.085 167.95 28.0113 167.791 27.864C167.644 27.7167 167.57 27.5183 167.57 27.269V22.934C167.57 22.2313 167.429 21.7157 167.145 21.387C166.873 21.0583 166.443 20.894 165.853 20.894C165.162 20.894 164.607 21.1093 164.187 21.54C163.768 21.9707 163.558 22.5487 163.558 23.274V27.269C163.558 27.5183 163.479 27.7167 163.32 27.864C163.173 28.0113 162.969 28.085 162.708 28.085C162.448 28.085 162.238 28.0113 162.079 27.864C161.921 27.7167 161.841 27.5183 161.841 27.269V20.35C161.841 20.112 161.921 19.9193 162.079 19.772C162.249 19.6133 162.459 19.534 162.708 19.534C162.958 19.534 163.156 19.6077 163.303 19.755C163.451 19.9023 163.524 20.095 163.524 20.333V21.03C163.796 20.5313 164.176 20.1517 164.663 19.891C165.151 19.6303 165.7 19.5 166.312 19.5ZM178.062 19.534C178.323 19.534 178.527 19.6077 178.674 19.755C178.833 19.9023 178.912 20.1063 178.912 20.367V27.286C178.912 27.524 178.833 27.7167 178.674 27.864C178.516 28.0113 178.306 28.085 178.045 28.085C177.807 28.085 177.615 28.017 177.467 27.881C177.32 27.7337 177.246 27.541 177.246 27.303V26.657C176.986 27.133 176.623 27.4957 176.158 27.745C175.705 27.9943 175.195 28.119 174.628 28.119C172.611 28.119 171.602 27.0083 171.602 24.787V20.367C171.602 20.1063 171.676 19.9023 171.823 19.755C171.982 19.6077 172.197 19.534 172.469 19.534C172.73 19.534 172.934 19.6077 173.081 19.755C173.24 19.9023 173.319 20.1063 173.319 20.367V24.77C173.319 25.4387 173.455 25.9317 173.727 26.249C173.999 26.5663 174.419 26.725 174.985 26.725C175.654 26.725 176.187 26.5097 176.583 26.079C176.991 25.6483 177.195 25.076 177.195 24.362V20.367C177.195 20.1177 177.275 19.9193 177.433 19.772C177.592 19.6133 177.802 19.534 178.062 19.534ZM187.809 25.909C187.968 25.909 188.098 25.9713 188.2 26.096C188.302 26.2207 188.353 26.3793 188.353 26.572C188.353 26.9007 188.149 27.1783 187.741 27.405C187.344 27.6317 186.908 27.8073 186.432 27.932C185.967 28.0567 185.52 28.119 185.089 28.119C183.774 28.119 182.737 27.7393 181.978 26.98C181.219 26.2093 180.839 25.161 180.839 23.835C180.839 22.985 181.003 22.2313 181.332 21.574C181.672 20.9167 182.142 20.4067 182.743 20.044C183.355 19.6813 184.046 19.5 184.817 19.5C185.928 19.5 186.806 19.857 187.452 20.571C188.098 21.285 188.421 22.2483 188.421 23.461C188.421 23.9143 188.217 24.141 187.809 24.141H182.556C182.669 25.8977 183.514 26.776 185.089 26.776C185.508 26.776 185.871 26.7193 186.177 26.606C186.483 26.4927 186.806 26.3453 187.146 26.164C187.18 26.1413 187.271 26.096 187.418 26.028C187.577 25.9487 187.707 25.909 187.809 25.909ZM184.851 20.758C184.194 20.758 183.667 20.9677 183.27 21.387C182.873 21.8063 182.635 22.3957 182.556 23.155H186.942C186.908 22.3843 186.71 21.795 186.347 21.387C185.996 20.9677 185.497 20.758 184.851 20.758ZM206.083 20.061C206.208 19.721 206.44 19.551 206.78 19.551C206.996 19.551 207.188 19.6247 207.358 19.772C207.528 19.9193 207.613 20.1007 207.613 20.316C207.613 20.4293 207.591 20.5313 207.545 20.622L204.723 27.507C204.655 27.6883 204.542 27.83 204.383 27.932C204.225 28.0227 204.049 28.068 203.856 28.068C203.675 28.068 203.505 28.0227 203.346 27.932C203.188 27.83 203.074 27.6883 203.006 27.507L200.796 22.05L198.637 27.507C198.569 27.6883 198.456 27.83 198.297 27.932C198.15 28.0227 197.98 28.068 197.787 28.068C197.606 28.068 197.43 28.0227 197.26 27.932C197.102 27.83 196.983 27.6883 196.903 27.507L194.098 20.622C194.053 20.5313 194.03 20.435 194.03 20.333C194.03 20.1063 194.121 19.9193 194.302 19.772C194.495 19.6247 194.705 19.551 194.931 19.551C195.271 19.551 195.504 19.7153 195.628 20.044L197.821 25.841L200.065 20.095C200.133 19.9137 200.241 19.7777 200.388 19.687C200.536 19.5963 200.694 19.551 200.864 19.551C201.023 19.551 201.176 19.5963 201.323 19.687C201.471 19.7777 201.578 19.9137 201.646 20.095L203.89 25.807L206.083 20.061ZM210.073 28.085C209.823 28.085 209.614 28.017 209.444 27.881C209.285 27.745 209.206 27.541 209.206 27.269V20.367C209.206 20.095 209.285 19.891 209.444 19.755C209.614 19.6077 209.823 19.534 210.073 19.534C210.322 19.534 210.526 19.6077 210.685 19.755C210.843 19.891 210.923 20.095 210.923 20.367V27.269C210.923 27.541 210.843 27.745 210.685 27.881C210.526 28.017 210.322 28.085 210.073 28.085ZM210.073 17.868C209.744 17.868 209.483 17.7773 209.291 17.596C209.098 17.4147 209.002 17.1767 209.002 16.882C209.002 16.5873 209.098 16.355 209.291 16.185C209.483 16.0037 209.744 15.913 210.073 15.913C210.39 15.913 210.645 16.0037 210.838 16.185C211.042 16.355 211.144 16.5873 211.144 16.882C211.144 17.1767 211.047 17.4147 210.855 17.596C210.662 17.7773 210.401 17.868 210.073 17.868ZM217.386 26.776C217.635 26.7987 217.811 26.8667 217.913 26.98C218.026 27.082 218.083 27.2293 218.083 27.422C218.083 27.6487 217.992 27.8243 217.811 27.949C217.641 28.0623 217.386 28.1077 217.046 28.085L216.587 28.051C215.669 27.983 214.983 27.7053 214.53 27.218C214.076 26.7193 213.85 25.9883 213.85 25.025V21.03H212.83C212.331 21.03 212.082 20.809 212.082 20.367C212.082 20.163 212.144 20.0043 212.269 19.891C212.405 19.7663 212.592 19.704 212.83 19.704H213.85V17.953C213.85 17.6923 213.923 17.4883 214.071 17.341C214.229 17.1937 214.439 17.12 214.7 17.12C214.96 17.12 215.17 17.1937 215.329 17.341C215.487 17.4883 215.567 17.6923 215.567 17.953V19.704H217.25C217.488 19.704 217.669 19.7663 217.794 19.891C217.93 20.0043 217.998 20.163 217.998 20.367C217.998 20.5823 217.93 20.7467 217.794 20.86C217.669 20.9733 217.488 21.03 217.25 21.03H215.567V25.144C215.567 25.6767 215.674 26.0677 215.89 26.317C216.116 26.5663 216.456 26.708 216.91 26.742L217.386 26.776ZM223.804 19.5C225.776 19.5 226.762 20.6163 226.762 22.849V27.269C226.762 27.5183 226.683 27.7167 226.524 27.864C226.365 28.0113 226.156 28.085 225.895 28.085C225.634 28.085 225.425 28.0113 225.266 27.864C225.119 27.7167 225.045 27.5183 225.045 27.269V22.866C225.045 22.186 224.903 21.6873 224.62 21.37C224.348 21.0527 223.917 20.894 223.328 20.894C222.637 20.894 222.081 21.1093 221.662 21.54C221.243 21.9707 221.033 22.5487 221.033 23.274V27.269C221.033 27.5183 220.954 27.7167 220.795 27.864C220.648 28.0113 220.444 28.085 220.183 28.085C219.922 28.085 219.713 28.0113 219.554 27.864C219.395 27.7167 219.316 27.5183 219.316 27.269V16.746C219.316 16.4967 219.395 16.2983 219.554 16.151C219.724 16.0037 219.939 15.93 220.2 15.93C220.449 15.93 220.648 16.0037 220.795 16.151C220.954 16.287 221.033 16.474 221.033 16.712V20.962C221.316 20.486 221.696 20.1233 222.172 19.874C222.648 19.6247 223.192 19.5 223.804 19.5ZM242.807 21.642C243.023 21.642 243.193 21.7043 243.317 21.829C243.453 21.9537 243.521 22.1237 243.521 22.339V26.317C243.521 26.7023 243.465 26.98 243.351 27.15C243.249 27.32 243.04 27.456 242.722 27.558C242.269 27.7393 241.731 27.881 241.107 27.983C240.484 28.085 239.866 28.136 239.254 28.136C238.042 28.136 236.993 27.8923 236.109 27.405C235.225 26.9177 234.551 26.215 234.086 25.297C233.622 24.379 233.389 23.2797 233.389 21.999C233.389 20.741 233.622 19.653 234.086 18.735C234.551 17.817 235.214 17.1143 236.075 16.627C236.948 16.1283 237.968 15.879 239.135 15.879C239.929 15.879 240.66 15.998 241.328 16.236C242.008 16.4627 242.586 16.797 243.062 17.239C243.289 17.4203 243.402 17.647 243.402 17.919C243.402 18.123 243.346 18.2987 243.232 18.446C243.119 18.582 242.983 18.65 242.824 18.65C242.722 18.65 242.632 18.633 242.552 18.599C242.473 18.565 242.371 18.5083 242.246 18.429C241.691 18.021 241.187 17.7377 240.733 17.579C240.28 17.409 239.759 17.324 239.169 17.324C237.877 17.324 236.891 17.7263 236.211 18.531C235.531 19.3243 235.191 20.4803 235.191 21.999C235.191 23.5517 235.537 24.7303 236.228 25.535C236.931 26.3283 237.957 26.725 239.305 26.725C240.212 26.725 241.085 26.589 241.923 26.317V22.968H239.696C239.47 22.968 239.288 22.9113 239.152 22.798C239.028 22.6733 238.965 22.509 238.965 22.305C238.965 22.101 239.028 21.9423 239.152 21.829C239.288 21.7043 239.47 21.642 239.696 21.642H242.807ZM249.565 28.119C248.749 28.119 248.03 27.9433 247.406 27.592C246.794 27.2407 246.318 26.742 245.978 26.096C245.65 25.4387 245.485 24.6793 245.485 23.818C245.485 22.9453 245.65 22.186 245.978 21.54C246.318 20.8827 246.794 20.3783 247.406 20.027C248.03 19.6757 248.749 19.5 249.565 19.5C250.381 19.5 251.095 19.6757 251.707 20.027C252.331 20.3783 252.807 20.8827 253.135 21.54C253.475 22.186 253.645 22.9453 253.645 23.818C253.645 24.6793 253.475 25.4387 253.135 26.096C252.807 26.742 252.331 27.2407 251.707 27.592C251.095 27.9433 250.381 28.119 249.565 28.119ZM249.565 26.759C250.325 26.759 250.903 26.5097 251.299 26.011C251.707 25.5123 251.911 24.7813 251.911 23.818C251.911 22.866 251.707 22.1407 251.299 21.642C250.891 21.132 250.313 20.877 249.565 20.877C248.817 20.877 248.239 21.132 247.831 21.642C247.423 22.1407 247.219 22.866 247.219 23.818C247.219 24.7813 247.418 25.5123 247.814 26.011C248.222 26.5097 248.806 26.759 249.565 26.759ZM259.161 28.119C258.345 28.119 257.626 27.9433 257.002 27.592C256.39 27.2407 255.914 26.742 255.574 26.096C255.246 25.4387 255.081 24.6793 255.081 23.818C255.081 22.9453 255.246 22.186 255.574 21.54C255.914 20.8827 256.39 20.3783 257.002 20.027C257.626 19.6757 258.345 19.5 259.161 19.5C259.977 19.5 260.691 19.6757 261.303 20.027C261.927 20.3783 262.403 20.8827 262.731 21.54C263.071 22.186 263.241 22.9453 263.241 23.818C263.241 24.6793 263.071 25.4387 262.731 26.096C262.403 26.742 261.927 27.2407 261.303 27.592C260.691 27.9433 259.977 28.119 259.161 28.119ZM259.161 26.759C259.921 26.759 260.499 26.5097 260.895 26.011C261.303 25.5123 261.507 24.7813 261.507 23.818C261.507 22.866 261.303 22.1407 260.895 21.642C260.487 21.132 259.909 20.877 259.161 20.877C258.413 20.877 257.835 21.132 257.427 21.642C257.019 22.1407 256.815 22.866 256.815 23.818C256.815 24.7813 257.014 25.5123 257.41 26.011C257.818 26.5097 258.402 26.759 259.161 26.759ZM272.021 19.534C272.282 19.534 272.486 19.6133 272.633 19.772C272.792 19.9193 272.871 20.1177 272.871 20.367V27.337C272.871 28.6063 272.531 29.564 271.851 30.21C271.182 30.856 270.191 31.179 268.876 31.179C267.652 31.179 266.632 30.9467 265.816 30.482C265.397 30.244 265.187 29.9607 265.187 29.632C265.187 29.4393 265.238 29.2807 265.34 29.156C265.453 29.0313 265.589 28.969 265.748 28.969C265.895 28.969 266.128 29.054 266.445 29.224C266.853 29.4167 267.233 29.564 267.584 29.666C267.935 29.7793 268.355 29.836 268.842 29.836C270.406 29.836 271.188 29.0483 271.188 27.473V26.164C270.95 26.6627 270.587 27.0537 270.1 27.337C269.613 27.609 269.046 27.745 268.4 27.745C267.675 27.745 267.029 27.575 266.462 27.235C265.895 26.895 265.453 26.4133 265.136 25.79C264.83 25.1667 264.677 24.447 264.677 23.631C264.677 22.815 264.836 22.0953 265.153 21.472C265.47 20.8487 265.907 20.367 266.462 20.027C267.029 19.6757 267.675 19.5 268.4 19.5C269.035 19.5 269.59 19.636 270.066 19.908C270.553 20.18 270.922 20.5653 271.171 21.064V20.35C271.171 20.1007 271.245 19.9023 271.392 19.755C271.551 19.6077 271.76 19.534 272.021 19.534ZM268.808 26.385C269.545 26.385 270.123 26.1413 270.542 25.654C270.961 25.1667 271.171 24.4923 271.171 23.631C271.171 22.781 270.961 22.1123 270.542 21.625C270.134 21.1263 269.556 20.877 268.808 20.877C268.06 20.877 267.471 21.1207 267.04 21.608C266.621 22.0953 266.411 22.7697 266.411 23.631C266.411 24.4923 266.626 25.1667 267.057 25.654C267.488 26.1413 268.071 26.385 268.808 26.385ZM276.13 28.085C275.881 28.085 275.671 28.017 275.501 27.881C275.343 27.745 275.263 27.541 275.263 27.269V16.763C275.263 16.491 275.343 16.287 275.501 16.151C275.671 16.0037 275.881 15.93 276.13 15.93C276.38 15.93 276.584 16.0037 276.742 16.151C276.901 16.287 276.98 16.491 276.98 16.763V27.269C276.98 27.541 276.901 27.745 276.742 27.881C276.584 28.017 276.38 28.085 276.13 28.085ZM285.874 25.909C286.033 25.909 286.163 25.9713 286.265 26.096C286.367 26.2207 286.418 26.3793 286.418 26.572C286.418 26.9007 286.214 27.1783 285.806 27.405C285.41 27.6317 284.973 27.8073 284.497 27.932C284.033 28.0567 283.585 28.119 283.154 28.119C281.84 28.119 280.803 27.7393 280.043 26.98C279.284 26.2093 278.904 25.161 278.904 23.835C278.904 22.985 279.069 22.2313 279.397 21.574C279.737 20.9167 280.208 20.4067 280.808 20.044C281.42 19.6813 282.112 19.5 282.882 19.5C283.993 19.5 284.871 19.857 285.517 20.571C286.163 21.285 286.486 22.2483 286.486 23.461C286.486 23.9143 286.282 24.141 285.874 24.141H280.621C280.735 25.8977 281.579 26.776 283.154 26.776C283.574 26.776 283.936 26.7193 284.242 26.606C284.548 26.4927 284.871 26.3453 285.211 26.164C285.245 26.1413 285.336 26.096 285.483 26.028C285.642 25.9487 285.772 25.909 285.874 25.909ZM282.916 20.758C282.259 20.758 281.732 20.9677 281.335 21.387C280.939 21.8063 280.701 22.3957 280.621 23.155H285.007C284.973 22.3843 284.775 21.795 284.412 21.387C284.061 20.9677 283.562 20.758 282.916 20.758Z" fill="white"/>
</svg>
