<svg width="24" height="24" viewBox="0 0 24 24" fill="none" xmlns="http://www.w3.org/2000/svg">
<path fill-rule="evenodd" clip-rule="evenodd" d="M12 8C14.2092 8 16 6.20914 16 4C16 1.79086 14.2092 0 12 0C9.79089 0 8.00003 1.79086 8.00003 4C8.00003 6.20914 9.79089 8 12 8Z" fill="#2A2A2A"/>
<path fill-rule="evenodd" clip-rule="evenodd" d="M4 24C6.20914 24 8.00001 22.2091 8.00001 20C8.00001 17.7909 6.20914 16 4 16C1.79086 16 0 17.7909 0 20C0 22.2091 1.79086 24 4 24Z" fill="#2A2A2A"/>
<path fill-rule="evenodd" clip-rule="evenodd" d="M20 24C22.2091 24 24 22.2091 24 20C24 17.7909 22.2091 16 20 16C17.7909 16 16 17.7909 16 20C16 22.2091 17.7909 24 20 24Z" fill="#2A2A2A"/>
</svg>
