<svg width="20" height="20" viewBox="0 0 20 20" fill="none" xmlns="http://www.w3.org/2000/svg">
<path d="M18.4457 9.06171L14.6912 12.8149C12.619 14.8883 9.25743 14.8883 7.18491 12.8149C6.85845 12.4894 6.60306 12.1226 6.37878 11.7443L8.12328 9.99998C8.2062 9.91636 8.3086 9.86844 8.40645 9.81199C8.52706 10.224 8.73759 10.6141 9.06164 10.9382C10.0965 11.9739 11.7804 11.9725 12.8147 10.9382L16.568 7.18508C17.6036 6.14952 17.6036 4.46601 16.568 3.43124C15.5337 2.39648 13.8502 2.39648 12.8147 3.43124L11.48 4.76734C10.3969 4.34562 9.23004 4.23224 8.09409 4.3987L10.9382 1.55474C13.0116 -0.518247 16.3723 -0.518247 18.4457 1.55474C20.5181 3.62764 20.5181 6.98885 18.4457 9.06171Z" fill="#2A2A2A"/>
<path d="M8.52056 15.2333L7.18493 16.5694C6.15016 17.6037 4.46614 17.6037 3.4312 16.5694C2.39633 15.5337 2.39633 13.8502 3.4312 12.815L7.18493 9.06176C8.22054 8.02629 9.90341 8.02629 10.9382 9.06176C11.2615 9.38515 11.4722 9.77514 11.594 10.1867C11.6924 10.1295 11.7935 10.083 11.8764 9.99999L13.6208 8.25634C13.398 7.87659 13.1412 7.5111 12.8147 7.18521C10.7427 5.11223 7.38076 5.11223 5.30776 7.18521L1.55459 10.9385C-0.518197 13.0121 -0.518197 16.3723 1.55459 18.4458C3.62759 20.5181 6.98871 20.5181 9.06167 18.4458L11.9065 15.6012C10.7699 15.7686 9.60273 15.6543 8.52056 15.2333Z" fill="#2A2A2A"/>
</svg>
