<svg width="14" height="12" viewBox="0 0 14 12" fill="none" xmlns="http://www.w3.org/2000/svg">
<path fill-rule="evenodd" clip-rule="evenodd" d="M0 2C0 1.30964 0.559644 0.75 1.25 0.75C1.94036 0.75 2.5 1.30964 2.5 2C2.5 2.69036 1.94036 3.25 1.25 3.25C0.559644 3.25 0 2.69036 0 2ZM5 3H13C13.5523 3 14 2.55228 14 2C14 1.44772 13.5523 1 13 1H5C4.44772 1 4 1.44772 4 2C4 2.55228 4.44772 3 5 3ZM13 5C13.5523 5 14 5.44772 14 6C14 6.55228 13.5523 7 13 7H5C4.44772 7 4 6.55228 4 6C4 5.44772 4.44772 5 5 5H13ZM14 10C14 9.44771 13.5523 9 13 9H5C4.44772 9 4 9.44771 4 10C4 10.5523 4.44772 11 5 11H13C13.5523 11 14 10.5523 14 10ZM1.25 4.75C0.559644 4.75 0 5.30964 0 6C0 6.69036 0.559644 7.25 1.25 7.25C1.94036 7.25 2.5 6.69036 2.5 6C2.5 5.30964 1.94036 4.75 1.25 4.75ZM0 10C0 9.30964 0.559644 8.75 1.25 8.75C1.94036 8.75 2.5 9.30964 2.5 10C2.5 10.6904 1.94036 11.25 1.25 11.25C0.559644 11.25 0 10.6904 0 10Z" fill="#AAAAAA"/>
</svg>
