<svg width="16" height="16" viewBox="0 0 16 16" fill="none" xmlns="http://www.w3.org/2000/svg">
<rect width="16" height="16" fill="#E5E5E5"/>
<g clip-path="url(#clip0_0_1)">
<rect width="1280" height="793" transform="translate(-708 -262)" fill="white"/>
<g clip-path="url(#clip1_0_1)">
<rect width="1000" height="156" transform="translate(-456 14)" fill="white"/>
<rect x="-455.5" y="14.5" width="999" height="155" rx="4.5" fill="white"/>
<rect x="-455.5" y="14.5" width="999" height="155" rx="4.5" stroke="#D6D6D6"/>
</g>
<path fill-rule="evenodd" clip-rule="evenodd" d="M16 1.61143L14.3886 0L8 6.38857L1.61143 0L0 1.61143L6.38857 8L0 14.3886L1.61143 16L8 9.61143L14.3886 16L16 14.3886L9.61143 8L16 1.61143Z" fill="#2A2A2A"/>
<g filter="url(#filter0_d_0_1)">
<rect x="-272" y="-10" width="300" height="463" fill="white"/>
</g>
<rect x="-272" y="-10" width="300" height="36" fill="#F5F5F5"/>
<path fill-rule="evenodd" clip-rule="evenodd" d="M16 1.61143L14.3886 0L8 6.38857L1.61143 0L0 1.61143L6.38857 8L0 14.3886L1.61143 16L8 9.61143L14.3886 16L16 14.3886L9.61143 8L16 1.61143Z" fill="#2A2A2A"/>
</g>
<defs>
<filter id="filter0_d_0_1" x="-282" y="-18" width="320" height="483" filterUnits="userSpaceOnUse" color-interpolation-filters="sRGB">
<feFlood flood-opacity="0" result="BackgroundImageFix"/>
<feColorMatrix in="SourceAlpha" type="matrix" values="0 0 0 0 0 0 0 0 0 0 0 0 0 0 0 0 0 0 127 0" result="hardAlpha"/>
<feOffset dy="2"/>
<feGaussianBlur stdDeviation="5"/>
<feColorMatrix type="matrix" values="0 0 0 0 0 0 0 0 0 0 0 0 0 0 0 0 0 0 0.2 0"/>
<feBlend mode="normal" in2="BackgroundImageFix" result="effect1_dropShadow_0_1"/>
<feBlend mode="normal" in="SourceGraphic" in2="effect1_dropShadow_0_1" result="shape"/>
</filter>
<clipPath id="clip0_0_1">
<rect width="1280" height="793" fill="white" transform="translate(-708 -262)"/>
</clipPath>
<clipPath id="clip1_0_1">
<rect width="1000" height="156" fill="white" transform="translate(-456 14)"/>
</clipPath>
</defs>
</svg>
