<svg width="21" height="20" viewBox="0 0 21 20" fill="none" xmlns="http://www.w3.org/2000/svg">
<path fill-rule="evenodd" clip-rule="evenodd" d="M13.8979 12.5869H14.8003L20.5 18.2981L18.7981 20L13.0869 14.3003V13.3979L12.7785 13.0781C9.74586 15.681 5.19807 15.4212 2.48164 12.4897C-0.234782 9.55824 -0.148115 5.00386 2.67787 2.17787C5.50386 -0.648115 10.0582 -0.734782 12.9897 1.98164C15.9212 4.69807 16.181 9.24586 13.5781 12.2785L13.8979 12.5869ZM2.80687 7.44691C2.80687 10.2857 5.10813 12.5869 7.94689 12.5869C9.31067 12.5888 10.6191 12.0478 11.5835 11.0835C12.5478 10.1191 13.0887 8.81069 13.0869 7.44691C13.0869 4.60815 10.7857 2.30688 7.94689 2.30688C5.10813 2.30688 2.80687 4.60815 2.80687 7.44691Z" fill="#777777"/>
</svg>
