<svg width="25" height="24" viewBox="0 0 25 24" fill="none" xmlns="http://www.w3.org/2000/svg">
<path fill-rule="evenodd" clip-rule="evenodd" d="M5.25424 24L24.5 23.9692C24.1232 18.0296 20.752 14.6955 14.3864 13.9667C4.83803 12.8736 6.35413 5.94855 5.90215 2.62404C5.45018 -0.700471 0.906233 -1.39371 0.539252 3.66965C0.172271 8.73301 2.46379 13.6858 3.85901 17.3434C4.78916 19.7819 5.25424 22.0007 5.25424 24Z" fill="#2A2A2A"/>
<path d="M14.5978 11.4013C17.4973 11.4013 19.8478 9.0508 19.8478 6.15131C19.8478 3.25181 17.4973 0.901308 14.5978 0.901308C11.6983 0.901308 9.34778 3.25181 9.34778 6.15131C9.34778 9.0508 11.6983 11.4013 14.5978 11.4013Z" fill="#2A2A2A"/>
</svg>
