<svg id="ac6a825b-02fe-4ca0-964c-b574f5bacc3b" data-name="Layer 1" xmlns="http://www.w3.org/2000/svg" xmlns:xlink="http://www.w3.org/1999/xlink" viewBox="0 0 18 18" style="width: 15px; height: 15px;"><defs><style>.fce2fd46-9a29-4c37-aeca-78db93a25519{fill:none;}.e6404ca9-0919-4413-9ec7-6e8619b097d4{clip-path:url(#ff0eea1b-c4e3-4feb-a2d4-c0f9ba2f1102);}</style><clipPath id="ff0eea1b-c4e3-4feb-a2d4-c0f9ba2f1102"><rect class="fce2fd46-9a29-4c37-aeca-78db93a25519" width="18" height="18"></rect></clipPath></defs><g class="fill"><path d="M4.5,5.5H2V2H5.5V4.5A1,1,0,0,1,4.5,5.5Zm1,4.25V7.25H2v3.5H4.5A1,1,0,0,0,5.5,9.75ZM5.5,15V12.5H2V16H4.5A1,1,0,0,0,5.5,15ZM10.75,4.5V2H7.25V5.5h2.5A1,1,0,0,0,10.75,4.5Zm0,5.25V7.25H7.25v3.5h2.5A1,1,0,0,0,10.75,9.75Zm0,5.25V12.5H7.25V16h2.5A1,1,0,0,0,10.75,15ZM16,4.5V2H12.5V5.5H15A1,1,0,0,0,16,4.5Zm0,5.25V7.25H12.5v3.5H15A1,1,0,0,0,16,9.75ZM16,15V12.5H12.5V16H15A1,1,0,0,0,16,15Z"></path></g></svg>