<svg width="20" height="20" viewBox="0 0 20 20" fill="none" xmlns="http://www.w3.org/2000/svg">
<path fill-rule="evenodd" clip-rule="evenodd" d="M0 10C0 4.48 4.48 0 10 0C15.52 0 20 4.48 20 10C20 15.52 15.52 20 10 20C4.48 20 0 15.52 0 10ZM11.1779 10.499L14.256 13.5769C14.4123 13.7333 14.5001 13.9454 14.5 14.1666C14.4999 14.3877 14.4119 14.5998 14.2555 14.756C13.93 15.0813 13.4025 15.0813 13.0771 14.756L9.9992 11.6781L6.92264 14.7557C6.59718 15.0812 6.0695 15.0812 5.74404 14.7557C5.41865 14.4302 5.41865 13.9025 5.74404 13.577L8.82048 10.4991L5.74426 7.42281C5.58795 7.26653 5.50013 7.05453 5.50013 6.83347C5.50013 6.61241 5.58795 6.40042 5.74426 6.24413C6.06972 5.91862 6.5974 5.91862 6.92286 6.24413L9.9992 9.32029L13.074 6.24457C13.2303 6.08823 13.4423 6.00039 13.6633 6.00039C13.8844 6.00039 14.0964 6.08823 14.2527 6.24457C14.5781 6.57004 14.5781 7.09768 14.2527 7.42314L11.1779 10.499Z" fill="#008CAA"/>
</svg>
