<svg viewBox="0 0 1118.1 1118.1" xmlns="http://www.w3.org/2000/svg" style="width: 50px; height: 50px;">
<defs>
<style>.cls-1{fill:#008caa;opacity:0.1;}.cls-2{fill:#fff;}.cls-3{fill:none !important;}</style>
</defs>
<g data-name="Layer 2">
<g data-name="Layer 1">
<circle class="cls-1 fill" cx="559.05" cy="559.05" r="559.05"></circle>
<path class="cls-1 fill" d="M1118.09,559.05c0,184.28-89.14,347.69-226.67,449.54q-22.35,16.56-46.38,30.9a559.35,559.35,0,0,1-572,0q-24-14.34-46.38-30.9C89.14,906.74,0,743.33,0,559.05,0,250.28,250.28,0,559.05,0S1118.09,250.28,1118.09,559.05Z"></path>
<path class="cls-2" d="M891.42,959.46v49.13q-22.35,16.56-46.38,30.9v-80c0-91.89-45-173.07-114-224.23a242.32,242.32,0,0,1-343,.07c0-.31.1-.71.13-1-69.69,51-115.13,132.72-115.13,225.18v80q-24-14.34-46.38-30.9V959.46c0-122.79,69-230.43,170.52-285.86a165.33,165.33,0,0,0,14.1,18.19c.61.72,1.32,1.36,2,2.07a165.73,165.73,0,0,0,15.62,15.08,4.68,4.68,0,0,0-.71.44,194.57,194.57,0,0,0,262.11.1c-.14-.07-.27-.17-.41-.24a174.27,174.27,0,0,0,28.26-31l3.12-4.3C822.81,729.33,891.42,836.67,891.42,959.46Z"></path>
<path class="cls-2" d="m752.34 468.21c-19.24-105.34-121.16-175.68-227.34-156.87a194.46 194.46 0 0 0-126.42 80.36 192.5 192.5 0 0 0-32 145.22c9.48 51.2 37.91 95.58 81 125.09a195.31 195.31 0 0 0 111.42 34.99 179.93 179.93 0 0 0 35-3.22 194 194 0 0 0 158.4-225.55zm-70.88 118.62a148 148 0 0 1-95.68 61.26c-39.2 6.81-78.74-1.63-111.4-24.33-32.67-22.36-54.25-56.41-61.43-95a148.26 148.26 0 0 1 146.67-173.68c70.58 0 133.29 50.25 146.34 121.53 6.87 38.9-1.63 78.13-24.5 110.22z"></path>
<rect class="cls-3" x="226.68" y="308.3" width="664.74" height="796.72"></rect>
</g>
</g>
</svg>