<svg width="30" height="30" viewBox="0 0 30 30" fill="none" xmlns="http://www.w3.org/2000/svg">
<g clip-path="url(#clip0_0_2449)">
<rect x="0.981812" width="27.4909" height="29.4545" rx="4.32" fill="#EFEFEF"/>
<path d="M24.879 29.4545H22.7063C22.2449 29.4545 21.8709 29.0805 21.8709 28.6191C21.8709 28.1576 22.2449 27.7836 22.7063 27.7836H24.879C26.4805 27.7836 27.7836 26.4806 27.7836 24.879V4.57558C27.7836 2.97405 26.4806 1.67097 24.879 1.67097H12.3322C11.8708 1.67097 11.4967 1.29692 11.4967 0.835485C11.4967 0.37405 11.8708 0 12.3322 0H24.879C27.402 0 29.4545 2.05256 29.4545 4.57558V24.879C29.4545 27.402 27.402 29.4545 24.879 29.4545Z" fill="#ADADAD"/>
<path d="M16.6656 29.4545H4.57558C2.05256 29.4545 0 27.402 0 24.879V4.57558C0 2.05256 2.05256 0 4.57558 0H6.45584C6.91727 0 7.29132 0.37405 7.29132 0.835485C7.29132 1.29692 6.91727 1.67097 6.45584 1.67097H4.57558C2.97405 1.67097 1.67097 2.97399 1.67097 4.57558V24.879C1.67097 26.4805 2.97399 27.7836 4.57558 27.7836H16.6656C17.127 27.7836 17.5011 28.1576 17.5011 28.6191C17.5011 29.0805 17.127 29.4545 16.6656 29.4545Z" fill="#ADADAD"/>
<path fill-rule="evenodd" clip-rule="evenodd" d="M24.7633 7.35706C24.4419 7.06209 24.0133 6.88184 23.5312 6.88184H9.54953C9.06741 6.88184 8.621 7.06209 8.31743 7.35706C7.99602 7.65202 7.7996 8.04531 7.7996 8.48776V13.5677H5.65681C5.31754 13.5677 5.01398 13.6988 4.78184 13.8955C4.54971 14.1085 4.42471 14.3871 4.42471 14.6984V19.9423C4.42471 20.2536 4.56757 20.5322 4.78184 20.7452C4.99612 20.9419 5.29968 21.073 5.63896 21.073H6.28179V21.9743C6.28179 22.1217 6.33536 22.2364 6.4425 22.3348C6.54964 22.4331 6.67463 22.4823 6.83534 22.4823C6.90677 22.4823 6.9782 22.4659 7.04962 22.4495C7.12105 22.4167 7.17462 22.3839 7.22819 22.3348L8.60314 21.073H14.8529C15.1922 21.073 15.4958 20.9419 15.7279 20.7452C15.96 20.5322 16.085 20.2536 16.085 19.9423V18.0742H19.0849L21.2098 20.0242C21.2813 20.0897 21.3527 20.1389 21.442 20.1717C21.5313 20.2045 21.6205 20.2208 21.7098 20.2208C21.9062 20.2208 22.0848 20.1553 22.2098 20.0242C22.3348 19.9095 22.4241 19.7456 22.4241 19.5654V18.0742H23.5312C24.0133 18.0742 24.4597 17.8939 24.7633 17.5989C25.0847 17.304 25.2811 16.9107 25.2811 16.4682V8.48776C25.2811 8.04531 25.0847 7.63564 24.7633 7.35706ZM15.585 19.9423C15.585 20.1389 15.4958 20.3028 15.3708 20.4339C15.2279 20.565 15.0493 20.6305 14.8351 20.6305H8.51386C8.46029 20.6305 8.38886 20.6469 8.35315 20.6961L6.90677 22.0234L6.88891 22.0398H6.8532C6.83534 22.0398 6.81749 22.0398 6.79963 22.0234C6.78177 22.007 6.78177 21.9906 6.78177 21.9743V20.8436C6.78177 20.7288 6.67463 20.6305 6.54964 20.6305H5.67467C5.46039 20.6305 5.28183 20.5486 5.13897 20.4339C4.99612 20.3028 4.9247 20.1389 4.9247 19.9423V14.6984H4.88898C4.88898 14.5018 4.97827 14.3379 5.10326 14.2068C5.24611 14.0757 5.42468 14.0102 5.63896 14.0102H7.78174V16.4682C7.78174 16.9107 7.97816 17.3203 8.29958 17.5989C8.621 17.8939 9.04955 18.0742 9.53168 18.0742H15.585V19.9423ZM24.4597 17.304C24.6919 17.0909 24.8347 16.796 24.8347 16.4682V8.48776C24.8347 8.16002 24.6919 7.86506 24.4597 7.65202C24.2276 7.43899 23.9062 7.3079 23.549 7.3079H9.54953C9.1924 7.3079 8.87099 7.43899 8.63885 7.65202C8.40672 7.86506 8.26386 8.16002 8.26386 8.48776V13.7808V16.4518C8.26386 16.7796 8.40672 17.0745 8.63885 17.2876C8.87099 17.5006 9.1924 17.6317 9.54953 17.6317H15.8529H19.1921C19.2456 17.6317 19.2992 17.6481 19.3528 17.6972L21.5848 19.7128C21.6027 19.7292 21.6205 19.7456 21.6563 19.762C21.6741 19.7784 21.7098 19.7784 21.7455 19.7784C21.7991 19.7784 21.8705 19.7456 21.9062 19.7128C21.9598 19.6801 21.9777 19.6309 21.9777 19.5654V17.8611C21.9777 17.7464 22.0848 17.6481 22.2098 17.6481H23.549C23.9062 17.6481 24.2276 17.517 24.4597 17.304Z" fill="black"/>
<path d="M24.7633 7.35706L24.4594 7.68821L24.469 7.69657L24.7633 7.35706ZM8.31743 7.35706L8.62133 7.68821L8.63053 7.67928L8.31743 7.35706ZM7.7996 13.5677V14.017H8.24888V13.5677H7.7996ZM4.78184 13.8955L4.49144 13.5527L4.48464 13.5584L4.47807 13.5644L4.78184 13.8955ZM4.78184 20.7452L4.46508 21.0638L4.47145 21.0702L4.47807 21.0762L4.78184 20.7452ZM6.28179 21.073H6.73107V20.6237H6.28179V21.073ZM7.04962 22.4495L7.15009 22.8874L7.19506 22.8771L7.23699 22.8578L7.04962 22.4495ZM7.22819 22.3348L7.53196 22.6658L7.22819 22.3348ZM8.60314 21.073V20.6237H8.42823L8.29936 20.742L8.60314 21.073ZM15.7279 20.7452L16.0183 21.088L16.0251 21.0823L16.0317 21.0762L15.7279 20.7452ZM16.085 18.0742V17.6249H15.6357V18.0742H16.085ZM19.0849 18.0742L19.3887 17.7431L19.2598 17.6249H19.0849V18.0742ZM21.2098 20.0242L20.9061 20.3552V20.3552L21.2098 20.0242ZM22.2098 20.0242L21.906 19.6932L21.895 19.7033L21.8846 19.7142L22.2098 20.0242ZM22.4241 18.0742V17.6249H21.9748V18.0742H22.4241ZM24.7633 17.5989L24.4594 17.2678L24.4502 17.2767L24.7633 17.5989ZM15.3708 20.4339L15.6745 20.7649L15.6856 20.7548L15.6959 20.7439L15.3708 20.4339ZM8.35315 20.6961L8.65692 21.0271L8.69014 20.9966L8.71664 20.9601L8.35315 20.6961ZM6.90677 22.0234L7.21054 22.3544L7.21055 22.3544L6.90677 22.0234ZM6.88891 22.0398V22.4891H7.06381L7.19268 22.3708L6.88891 22.0398ZM5.13897 20.4339L4.8352 20.7649L4.84612 20.7749L4.85767 20.7842L5.13897 20.4339ZM4.9247 14.6984H5.37398V14.2491H4.9247V14.6984ZM4.88898 14.6984H4.4397V15.1477H4.88898V14.6984ZM5.10326 14.2068L4.79948 13.8758L4.78844 13.8859L4.7781 13.8968L5.10326 14.2068ZM7.78174 14.0102H8.23102V13.5609H7.78174V14.0102ZM8.29958 17.5989L8.60348 17.2678L8.59384 17.2594L8.29958 17.5989ZM15.585 18.0742H16.0343V17.6249H15.585V18.0742ZM24.4597 17.304L24.156 16.9729V16.9729L24.4597 17.304ZM24.4597 7.65202L24.156 7.98304V7.98304L24.4597 7.65202ZM8.63885 7.65202L8.94263 7.98304V7.98304L8.63885 7.65202ZM8.63885 17.2876L8.94263 16.9566L8.63885 17.2876ZM19.3528 17.6972L19.049 18.0283L19.0517 18.0307L19.3528 17.6972ZM21.5848 19.7128L21.8886 19.3818L21.8859 19.3794L21.5848 19.7128ZM21.6563 19.762L21.96 19.431L21.9079 19.3832L21.8436 19.3537L21.6563 19.762ZM21.9062 19.7128L21.6718 19.3296L21.6346 19.3524L21.6025 19.3818L21.9062 19.7128ZM23.5312 7.33112C23.8978 7.33112 24.2187 7.46712 24.4595 7.68808L25.0671 7.02604C24.665 6.65706 24.1288 6.43256 23.5312 6.43256V7.33112ZM9.54953 7.33112H23.5312V6.43256H9.54953V7.33112ZM8.63053 7.67928C8.84421 7.47165 9.17565 7.33112 9.54953 7.33112V6.43256C8.95917 6.43256 8.39779 6.65254 8.00434 7.03484L8.63053 7.67928ZM8.24888 8.48776C8.24888 8.18652 8.38056 7.90892 8.62121 7.68808L8.01366 7.02604C7.61147 7.39513 7.35032 7.90411 7.35032 8.48776H8.24888ZM8.24888 13.5677V8.48776H7.35032V13.5677H8.24888ZM5.65681 14.017H7.7996V13.1184H5.65681V14.017ZM5.07224 14.2383C5.23316 14.102 5.43622 14.017 5.65681 14.017V13.1184C5.19886 13.1184 4.79479 13.2957 4.49144 13.5527L5.07224 14.2383ZM4.87399 14.6984C4.87399 14.5163 4.94369 14.3567 5.08562 14.2265L4.47807 13.5644C4.15573 13.8603 3.97543 14.2579 3.97543 14.6984H4.87399ZM4.87399 19.9423V14.6984H3.97543V19.9423H4.87399ZM5.0986 20.4266C4.95044 20.2793 4.87399 20.11 4.87399 19.9423H3.97543C3.97543 20.3973 4.18469 20.7851 4.46508 21.0638L5.0986 20.4266ZM5.63896 20.6237C5.4155 20.6237 5.2195 20.5371 5.08562 20.4142L4.47807 21.0762C4.77274 21.3467 5.18386 21.5222 5.63896 21.5222V20.6237ZM6.28179 20.6237H5.63896V21.5222H6.28179V20.6237ZM6.73107 21.9743V21.073H5.83251V21.9743H6.73107ZM6.74628 22.0037C6.73783 21.996 6.7337 21.9909 6.7321 21.9888C6.73062 21.9868 6.73085 21.9867 6.73154 21.9883C6.73225 21.9898 6.73235 21.9907 6.73216 21.9897C6.73193 21.9886 6.73107 21.9838 6.73107 21.9743H5.83251C5.83251 22.2537 5.94347 22.4866 6.13872 22.6658L6.74628 22.0037ZM6.83534 22.033C6.78171 22.033 6.76663 22.0224 6.74628 22.0037L6.13872 22.6658C6.33265 22.8438 6.56756 22.9315 6.83534 22.9315V22.033ZM6.94916 22.0116C6.86822 22.0301 6.84707 22.033 6.83534 22.033V22.9315C6.96647 22.9315 7.08818 22.9016 7.15009 22.8874L6.94916 22.0116ZM6.92441 22.0037C6.91388 22.0134 6.90302 22.0224 6.86225 22.0411L7.23699 22.8578C7.33907 22.811 7.43536 22.7544 7.53196 22.6658L6.92441 22.0037ZM8.29936 20.742L6.92441 22.0037L7.53196 22.6658L8.90692 21.404L8.29936 20.742ZM14.8529 20.6237H8.60314V21.5222H14.8529V20.6237ZM15.4375 20.4024C15.2766 20.5387 15.0735 20.6237 14.8529 20.6237V21.5222C15.3109 21.5222 15.7149 21.345 16.0183 21.088L15.4375 20.4024ZM15.6357 19.9423C15.6357 20.1244 15.566 20.284 15.4241 20.4142L16.0317 21.0762C16.354 20.7804 16.5343 20.3828 16.5343 19.9423H15.6357ZM15.6357 18.0742V19.9423H16.5343V18.0742H15.6357ZM19.0849 17.6249H16.085V18.5234H19.0849V17.6249ZM21.5136 19.6932L19.3887 17.7431L18.7811 18.4052L20.9061 20.3552L21.5136 19.6932ZM21.5968 19.7499C21.5774 19.7428 21.5551 19.7313 21.5136 19.6932L20.9061 20.3552C21.0074 20.4482 21.128 20.535 21.2872 20.5934L21.5968 19.7499ZM21.7098 19.7716C21.6767 19.7716 21.6397 19.7657 21.5968 19.7499L21.2872 20.5934C21.4228 20.6432 21.5644 20.6701 21.7098 20.6701V19.7716ZM21.8846 19.7142C21.8599 19.7401 21.8077 19.7716 21.7098 19.7716V20.6701C22.0048 20.6701 22.3097 20.5705 22.535 20.3342L21.8846 19.7142ZM21.9748 19.5654C21.9748 19.5951 21.9582 19.6453 21.906 19.6932L22.5136 20.3552C22.7114 20.1736 22.8734 19.8961 22.8734 19.5654H21.9748ZM21.9748 18.0742V19.5654H22.8734V18.0742H21.9748ZM23.5312 17.6249H22.4241V18.5234H23.5312V17.6249ZM24.4502 17.2767C24.2365 17.4843 23.9051 17.6249 23.5312 17.6249V18.5234C24.1216 18.5234 24.6829 18.3035 25.0764 17.9211L24.4502 17.2767ZM24.8319 16.4682C24.8319 16.7695 24.7002 17.0471 24.4595 17.2679L25.0671 17.9299C25.4692 17.5609 25.7304 17.0519 25.7304 16.4682H24.8319ZM24.8319 8.48776V16.4682H25.7304V8.48776H24.8319ZM24.469 7.69657C24.6949 7.89235 24.8319 8.17943 24.8319 8.48776H25.7304C25.7304 7.91119 25.4745 7.37893 25.0575 7.01755L24.469 7.69657ZM15.6959 20.7439C15.8755 20.5556 16.0343 20.2862 16.0343 19.9423H15.1358C15.1358 19.9916 15.116 20.05 15.0456 20.1238L15.6959 20.7439ZM14.8351 21.0798C15.149 21.0798 15.4398 20.9803 15.6745 20.7649L15.067 20.1029C15.016 20.1497 14.9497 20.1812 14.8351 20.1812V21.0798ZM8.51386 21.0798H14.8351V20.1812H8.51386V21.0798ZM8.71664 20.9601C8.66449 21.0319 8.60221 21.0594 8.57634 21.0685C8.54907 21.0781 8.52845 21.0798 8.51386 21.0798V20.1812C8.44569 20.1812 8.36257 20.1911 8.27727 20.2212C8.19337 20.2508 8.07752 20.3111 7.98966 20.432L8.71664 20.9601ZM7.21055 22.3544L8.65692 21.0271L8.04937 20.3651L6.60299 21.6924L7.21055 22.3544ZM7.19268 22.3708L7.21054 22.3544L6.603 21.6924L6.58514 21.7088L7.19268 22.3708ZM6.8532 22.4891H6.88891V21.5905H6.8532V22.4891ZM6.49586 22.3544C6.65248 22.4982 6.83372 22.4891 6.8532 22.4891V21.5905C6.83646 21.5905 6.87825 21.5887 6.92687 21.5998C6.98925 21.6142 7.0516 21.6449 7.10341 21.6924L6.49586 22.3544ZM6.33249 21.9743C6.33249 21.9758 6.33232 21.9952 6.33381 22.0171C6.33545 22.0411 6.33942 22.0762 6.35052 22.1169C6.37548 22.2086 6.42574 22.2901 6.49586 22.3544L7.10341 21.6924C7.15567 21.7404 7.19699 21.8055 7.21749 21.8807C7.23355 21.9397 7.23105 21.9913 7.23105 21.9743H6.33249ZM6.33249 20.8436V21.9743H7.23105V20.8436H6.33249ZM6.54964 21.0798C6.49453 21.0798 6.44543 21.0586 6.4088 21.025C6.37237 20.9916 6.33249 20.9297 6.33249 20.8436H7.23105C7.23105 20.4452 6.88566 20.1812 6.54964 20.1812V21.0798ZM5.67467 21.0798H6.54964V20.1812H5.67467V21.0798ZM4.85767 20.7842C5.06286 20.949 5.33778 21.0798 5.67467 21.0798V20.1812C5.583 20.1812 5.50079 20.1482 5.42028 20.0836L4.85767 20.7842ZM4.47542 19.9423C4.47542 20.2627 4.59813 20.5473 4.8352 20.7649L5.44275 20.1029C5.39411 20.0582 5.37398 20.0151 5.37398 19.9423H4.47542ZM4.47542 14.6984V19.9423H5.37398V14.6984H4.47542ZM4.88898 15.1477H4.9247V14.2491H4.88898V15.1477ZM4.7781 13.8968C4.59854 14.0851 4.4397 14.3545 4.4397 14.6984H5.33826C5.33826 14.6491 5.35799 14.5907 5.42843 14.5169L4.7781 13.8968ZM5.63896 13.5609C5.325 13.5609 5.0342 13.6604 4.79948 13.8758L5.40704 14.5378C5.45803 14.491 5.52436 14.4595 5.63896 14.4595V13.5609ZM7.78174 13.5609H5.63896V14.4595H7.78174V13.5609ZM8.23102 16.4682V14.0102H7.33246V16.4682H8.23102ZM8.59384 17.2594C8.36795 17.0636 8.23102 16.7766 8.23102 16.4682H7.33246C7.33246 17.0448 7.58837 17.5771 8.00532 17.9384L8.59384 17.2594ZM9.53168 17.6249C9.16504 17.6249 8.84412 17.4889 8.60335 17.2679L7.9958 17.9299C8.39787 18.2989 8.93407 18.5234 9.53168 18.5234V17.6249ZM15.585 17.6249H9.53168V18.5234H15.585V17.6249ZM16.0343 19.9423V18.0742H15.1358V19.9423H16.0343ZM24.3854 16.4682C24.3854 16.6603 24.3029 16.8381 24.156 16.9729L24.7635 17.635C25.0808 17.3438 25.284 16.9317 25.284 16.4682H24.3854ZM24.3854 8.48776V16.4682H25.284V8.48776H24.3854ZM24.156 7.98304C24.3029 8.11788 24.3854 8.29572 24.3854 8.48776H25.284C25.284 8.02432 25.0808 7.61223 24.7635 7.32101L24.156 7.98304ZM23.549 7.75718C23.7957 7.75718 24.0082 7.84743 24.156 7.98304L24.7635 7.32101C24.447 7.03056 24.0166 6.85862 23.549 6.85862V7.75718ZM9.54953 7.75718H23.549V6.85862H9.54953V7.75718ZM8.94263 7.98304C9.0904 7.84743 9.30287 7.75718 9.54953 7.75718V6.85862C9.08193 6.85862 8.65157 7.03056 8.33508 7.32101L8.94263 7.98304ZM8.71314 8.48776C8.71314 8.29572 8.7957 8.11788 8.94263 7.98304L8.33508 7.32101C8.01774 7.61223 7.81458 8.02432 7.81458 8.48776H8.71314ZM8.71314 13.7808V8.48776H7.81458V13.7808H8.71314ZM8.71314 16.4518V13.7808H7.81458V16.4518H8.71314ZM8.94263 16.9566C8.7957 16.8217 8.71314 16.6439 8.71314 16.4518H7.81458C7.81458 16.9153 8.01774 17.3274 8.33508 17.6186L8.94263 16.9566ZM9.54953 17.1824C9.30287 17.1824 9.0904 17.0922 8.94263 16.9566L8.33508 17.6186C8.65157 17.909 9.08193 18.081 9.54953 18.081V17.1824ZM15.8529 17.1824H9.54953V18.081H15.8529V17.1824ZM19.1921 17.1824H15.8529V18.081H19.1921V17.1824ZM19.6565 17.3662C19.5173 17.2384 19.3542 17.1824 19.1921 17.1824V18.081C19.1717 18.081 19.1431 18.0776 19.1119 18.0657C19.0808 18.0538 19.0598 18.0382 19.049 18.0283L19.6565 17.3662ZM21.8859 19.3794L19.6539 17.3638L19.0517 18.0307L21.2837 20.0463L21.8859 19.3794ZM21.8436 19.3537C21.8531 19.358 21.866 19.3652 21.8797 19.3753C21.891 19.3835 21.8987 19.3911 21.8886 19.3818L21.2811 20.0439C21.3094 20.0698 21.3686 20.1243 21.4689 20.1704L21.8436 19.3537ZM21.7455 19.3291C21.72 19.3291 21.7335 19.3284 21.7526 19.3309C21.7647 19.3325 21.7912 19.3367 21.8246 19.3486C21.8584 19.3608 21.9094 19.3846 21.96 19.431L21.3525 20.093C21.4657 20.1969 21.5939 20.2163 21.6358 20.2218C21.6862 20.2284 21.7353 20.2277 21.7455 20.2277V19.3291ZM21.6025 19.3818C21.6195 19.3662 21.6329 19.3575 21.6391 19.3537C21.6462 19.3493 21.6521 19.3464 21.6574 19.3442C21.6625 19.342 21.6706 19.339 21.6824 19.3361C21.6932 19.3335 21.715 19.3291 21.7455 19.3291V20.2277C21.8533 20.2277 21.9464 20.1976 22.0078 20.1716C22.0707 20.145 22.1449 20.1036 22.21 20.0439L21.6025 19.3818ZM21.5284 19.5654C21.5284 19.5606 21.5285 19.5195 21.553 19.4657C21.5811 19.4038 21.6264 19.3574 21.6718 19.3296L22.1407 20.0961C22.2397 20.0356 22.3207 19.9482 22.3711 19.8371C22.4179 19.7341 22.427 19.6356 22.427 19.5654H21.5284ZM21.5284 17.8611V19.5654H22.427V17.8611H21.5284ZM22.2098 17.1988C21.8738 17.1988 21.5284 17.4627 21.5284 17.8611H22.427C22.427 17.9473 22.3871 18.0092 22.3506 18.0426C22.314 18.0762 22.2649 18.0974 22.2098 18.0974V17.1988ZM23.549 17.1988H22.2098V18.0974H23.549V17.1988ZM24.156 16.9729C24.0082 17.1086 23.7957 17.1988 23.549 17.1988V18.0974C24.0166 18.0974 24.447 17.9254 24.7635 17.635L24.156 16.9729Z" fill="#008CAA"/>
<path d="M17.0907 16.7423C16.2985 16.7423 15.606 16.579 15.0133 16.2524C14.4207 15.9319 13.9641 15.4814 13.6436 14.9008C13.323 14.3202 13.1628 13.652 13.1628 12.896C13.1628 12.0735 13.3321 11.3599 13.6708 10.7552C14.0155 10.1504 14.4842 9.68778 15.0768 9.36726C15.6756 9.04069 16.3499 8.8774 17.0998 8.8774C17.8859 8.8774 18.5602 9.02859 19.1227 9.33097C19.6911 9.63335 20.1205 10.0385 20.4108 10.5465C20.7011 11.0545 20.8462 11.6139 20.8462 12.2247C20.8462 12.7751 20.7616 13.2407 20.5922 13.6217C20.4229 14.0027 20.1961 14.287 19.9119 14.4744C19.6337 14.6619 19.3222 14.7557 18.9775 14.7557C18.657 14.7557 18.4 14.6861 18.2065 14.547C18.0129 14.4079 17.898 14.2174 17.8618 13.9755H17.8436C17.5049 14.4956 17.0604 14.7557 16.5101 14.7557C16.0807 14.7557 15.7391 14.6105 15.4851 14.3202C15.2371 14.0239 15.1131 13.6278 15.1131 13.1319C15.1131 12.7085 15.1917 12.3185 15.349 11.9617C15.5123 11.6049 15.7391 11.3236 16.0293 11.118C16.3257 10.9064 16.6583 10.8005 17.0272 10.8005C17.2872 10.8005 17.514 10.858 17.7075 10.9729C17.9071 11.0878 18.0432 11.245 18.1158 11.4446H18.1339L18.1792 11.2178C18.1913 11.115 18.2337 11.0364 18.3062 10.982C18.3788 10.9275 18.4756 10.9003 18.5965 10.9003C18.7175 10.9003 18.8112 10.9336 18.8777 11.0001C18.9503 11.0666 18.9866 11.1573 18.9866 11.2722C18.9866 11.3267 18.9836 11.366 18.9775 11.3902L18.6691 13.1409C18.6449 13.2679 18.6328 13.398 18.6328 13.531C18.6328 13.7185 18.6721 13.8576 18.7507 13.9483C18.8294 14.039 18.9564 14.0844 19.1317 14.0844C19.2708 14.0844 19.4099 14.0239 19.549 13.9029C19.6881 13.7759 19.806 13.5733 19.9028 13.2952C19.9996 13.017 20.048 12.6602 20.048 12.2247C20.048 11.7288 19.9361 11.2843 19.7123 10.8912C19.4946 10.4921 19.162 10.1776 18.7145 9.94782C18.273 9.71802 17.7348 9.60311 17.0998 9.60311C16.5071 9.60311 15.9749 9.73314 15.5032 9.99318C15.0375 10.2532 14.6686 10.6312 14.3965 11.1271C14.1304 11.623 13.9973 12.2126 13.9973 12.896C13.9973 13.525 14.1213 14.0753 14.3693 14.547C14.6172 15.0127 14.974 15.3725 15.4397 15.6265C15.9054 15.8865 16.4557 16.0166 17.0907 16.0166C17.508 16.0166 17.8738 15.9652 18.1883 15.8624C18.5028 15.7656 18.7931 15.6174 19.0592 15.4179C19.1438 15.3513 19.2346 15.3181 19.3313 15.3181C19.4341 15.3181 19.5188 15.3544 19.5853 15.4269C19.6518 15.4995 19.6851 15.5872 19.6851 15.69C19.6851 15.8231 19.6276 15.9349 19.5127 16.0256C19.2648 16.2373 18.9261 16.4097 18.4967 16.5427C18.0734 16.6758 17.6047 16.7423 17.0907 16.7423ZM16.6915 14.0844C16.9516 14.0844 17.1754 14.0027 17.3628 13.8394C17.5563 13.6762 17.7015 13.4645 17.7983 13.2044C17.9011 12.9444 17.9525 12.6723 17.9525 12.388C17.9525 12.0917 17.8829 11.8679 17.7438 11.7167C17.6047 11.5595 17.4112 11.4809 17.1633 11.4809C16.9153 11.4809 16.6976 11.5625 16.5101 11.7258C16.3287 11.8831 16.1896 12.0887 16.0928 12.3427C16.0021 12.5906 15.9568 12.8507 15.9568 13.1228C15.9568 13.4191 16.0233 13.655 16.1563 13.8304C16.2954 13.9997 16.4738 14.0844 16.6915 14.0844Z" fill="#008CAA"/>
</g>
<defs>
<clipPath id="clip0_0_2449">
<rect width="30" height="30" fill="white"/>
</clipPath>
</defs>
</svg>
