<svg width="60" height="53" viewBox="0 0 60 53" fill="none" xmlns="http://www.w3.org/2000/svg">
<path fill-rule="evenodd" clip-rule="evenodd" d="M6.87738 53H53.1226C57.8515 53 60.7994 47.7958 58.435 43.6512L35.3124 3.10848C32.9479 -1.03616 27.0521 -1.03616 24.6876 3.10848L1.56502 43.6512C-0.799449 47.7958 2.14845 53 6.87738 53ZM30 31.1861C28.3111 31.1861 26.9293 29.7838 26.9293 28.0698V21.8373C26.9293 20.1233 28.3111 18.721 30 18.721C31.6889 18.721 33.0707 20.1233 33.0707 21.8373V28.0698C33.0707 29.7838 31.6889 31.1861 30 31.1861ZM26.9293 43.6512H33.0707V37.4186H26.9293V43.6512Z" fill="#F05C40"/>
</svg>
