<svg width="18" height="18" viewBox="0 0 18 18" fill="none" xmlns="http://www.w3.org/2000/svg">
<path d="M16.6307 8.19781L13.3231 11.5932C11.4975 13.4689 8.53603 13.4689 6.71018 11.5932C6.42258 11.2987 6.19758 10.9669 6 10.6247L7.53686 9.04663C7.60992 8.97098 7.70013 8.92763 7.78634 8.87656C7.89259 9.24932 8.07806 9.60222 8.36355 9.89541C9.27524 10.8324 10.7587 10.8311 11.6699 9.89541L14.9765 6.50008C15.8889 5.56326 15.8889 4.04024 14.9765 3.10412C14.0653 2.16801 12.5822 2.16801 11.6699 3.10412L10.4941 4.31285C9.5399 3.93133 8.5119 3.82875 7.51115 3.97935L10.0167 1.40652C11.8433 -0.468839 14.8041 -0.468839 16.6307 1.40652C18.4564 3.2818 18.4564 6.32257 16.6307 8.19781Z" fill="white"/>
<path d="M7.50667 13.6876L6.32997 14.8964C5.41833 15.8321 3.9347 15.8321 3.02291 14.8964C2.11119 13.9594 2.11119 12.4363 3.02291 11.4998L6.32997 8.10426C7.24235 7.16748 8.72497 7.16748 9.63661 8.10426C9.92145 8.39683 10.1071 8.74965 10.2144 9.12196C10.3011 9.07021 10.3902 9.02817 10.4632 8.95307L12 7.3756C11.8037 7.03204 11.5775 6.70139 11.2898 6.40656C9.46436 4.53115 6.5025 4.53115 4.67617 6.40656L1.3696 9.80211C-0.456535 11.6781 -0.456535 14.7181 1.3696 16.5939C3.19594 18.4687 6.1571 18.4687 7.98339 16.5939L10.4897 14.0204C9.48837 14.1719 8.46007 14.0684 7.50667 13.6876Z" fill="white"/>
</svg>
