<svg width="109" height="108" viewBox="0 0 109 108" fill="none" xmlns="http://www.w3.org/2000/svg">
<g id="Group 7">
<path id="path-1" d="M84.9527 51.9442L70.3441 66.8318C62.2812 75.0561 49.2013 75.0561 41.1371 66.8318C39.8669 65.5405 38.8731 64.0856 38.0005 62.5851L44.7883 55.666C45.111 55.3343 45.5094 55.1442 45.8901 54.9203C46.3594 56.5547 47.1786 58.102 48.4395 59.3876C52.4661 63.4957 59.0183 63.49 63.0425 59.3876L77.6466 44.5004C81.6763 40.3927 81.6763 33.7149 77.6466 29.6104C73.6222 25.5059 67.0717 25.5059 63.0425 29.6104L57.8493 34.9102C53.6351 33.2374 49.0947 32.7876 44.6747 33.4479L55.741 22.167C63.8086 13.9443 76.8851 13.9443 84.9527 22.167C93.0164 30.3894 93.0164 43.722 84.9527 51.9442Z" fill="url(#paint0_linear_0_6468)"/>
<path id="path-2" d="M46.1551 76.0919L40.958 81.3918C36.9316 85.4944 30.3789 85.4944 26.3518 81.3918C22.325 77.2836 22.325 70.6055 26.3518 66.499L40.958 51.611C44.9876 47.5036 51.5359 47.5036 55.5623 51.611C56.8203 52.8938 57.6404 54.4408 58.1141 56.0732C58.4971 55.8463 58.8906 55.662 59.2131 55.3327L66.0006 48.4161C65.1335 46.9097 64.1347 45.4599 62.8639 44.1672C54.8015 35.9443 41.72 35.9443 33.6537 44.1672L19.0497 59.0554C10.9842 67.2808 10.9842 80.61 19.0497 88.8347C27.116 97.0551 40.1945 97.0551 48.2606 88.8347L59.3301 77.5511C54.9076 78.2152 50.3659 77.7616 46.1551 76.0919Z" fill="url(#paint1_linear_0_6468)"/>
<g id="Group 4">
<path id="Path" d="M51.0226 96.5328V105.532C51.0226 106.895 52.3205 108 53.9215 108C55.5226 108 56.8205 106.895 56.8205 105.532V96.5328C56.8205 95.1696 55.5226 94.0645 53.9215 94.0645C52.3205 94.0645 51.0226 95.1696 51.0226 96.5328Z" fill="#E5E5E5"/>
<path id="Path_2" d="M51.0226 2.46825V11.467C51.0226 12.8302 52.3205 13.9354 53.9215 13.9354C55.5226 13.9354 56.8205 12.8302 56.8205 11.467V2.46825C56.8205 1.10501 55.5226 -0.00012207 53.9215 -0.00012207C52.3205 -0.00012207 51.0226 1.10501 51.0226 2.46825Z" fill="#E5E5E5"/>
<path id="Path_3" d="M74.2667 88.5908C73.1067 89.276 72.71 90.7921 73.3806 91.9772L77.8046 99.7942C78.4753 100.979 79.9593 101.384 81.1191 100.699C82.279 100.014 82.6755 98.4977 82.0048 97.3128L77.5808 89.4958C77.2588 88.9268 76.7287 88.5118 76.1072 88.3421C75.4857 88.1724 74.8237 88.2619 74.2667 88.5908Z" fill="#E5E5E5"/>
<path id="Path_4" d="M26.7269 7.29879C25.5656 7.98204 25.1671 9.49629 25.8369 10.681L30.2576 18.5009C30.6904 19.2681 31.4917 19.7412 32.3595 19.7418C33.2272 19.7425 34.0292 19.2706 34.4632 18.504C34.8971 17.7375 34.8968 16.793 34.4626 16.0266L30.0419 8.20668C29.7203 7.63783 29.1904 7.2226 28.5688 7.05233C27.9471 6.88207 27.2845 6.97072 26.7269 7.29879Z" fill="#E5E5E5"/>
<path id="Path_5" d="M89.3615 77.6992L97.1741 82.1292C98.3589 82.7957 99.8694 82.3953 100.552 81.2339C101.235 80.0725 100.832 78.5876 99.6517 77.9134L91.839 73.4834C90.6542 72.8169 89.1437 73.2173 88.4612 74.3787C87.7786 75.5401 88.1812 77.025 89.3615 77.6992Z" fill="#E5E5E5"/>
<path id="Path_6" d="M19.3823 33.6229C19.7106 33.0643 19.7996 32.4005 19.6297 31.7775C19.4598 31.1545 19.045 30.6233 18.4764 30.3008L10.6714 25.8741C9.48744 25.2031 7.97394 25.6019 7.29064 26.7648C6.60734 27.9278 7.01292 29.4148 8.19659 30.0863L16.0016 34.513C16.5701 34.8354 17.2456 34.9227 17.8796 34.7558C18.5136 34.5889 19.0542 34.1813 19.3823 33.6229Z" fill="#E5E5E5"/>
<path id="Path_7" d="M107.842 54.0002C107.842 53.2302 107.582 52.4917 107.12 51.9472C106.658 51.4027 106.031 51.0968 105.377 51.0967H96.3919C95.0305 51.0967 93.9268 52.3965 93.9268 53.9999C93.9268 55.6033 95.0305 56.9031 96.3919 56.9031H105.377C106.738 56.903 107.842 55.6033 107.842 54.0002Z" fill="#E5E5E5"/>
<path id="Path_8" d="M2.46631 56.9031H11.451C12.8125 56.9031 13.9161 55.6033 13.9161 53.9999C13.9161 52.3965 12.8125 51.0967 11.451 51.0967H2.46631C1.10488 51.0967 0.0012207 52.3965 0.0012207 53.9999C0.0012207 55.6033 1.10488 56.9031 2.46631 56.9031Z" fill="#E5E5E5"/>
</g>
</g>
<defs>
<linearGradient id="paint0_linear_0_6468" x1="38.0005" y1="16" x2="38.0005" y2="73" gradientUnits="userSpaceOnUse">
<stop stop-color="#E7E7E7"/>
<stop offset="1" stop-color="#CBCBCB"/>
</linearGradient>
<linearGradient id="paint1_linear_0_6468" x1="13.0006" y1="38" x2="13.0006" y2="95" gradientUnits="userSpaceOnUse">
<stop stop-color="#E7E7E7"/>
<stop offset="0.993534" stop-color="#CBCBCB"/>
</linearGradient>
</defs>
</svg>
