<svg width="6" height="16" viewBox="0 0 6 16" fill="none" xmlns="http://www.w3.org/2000/svg">
<path fill-rule="evenodd" clip-rule="evenodd" d="M1 3C1 4.10457 1.89543 5 3 5C4.10457 5 5 4.10457 5 3C5 1.89543 4.10457 1 3 1C1.89543 1 1 1.89543 1 3Z" fill="#2A2A2A" stroke="white"/>
<path fill-rule="evenodd" clip-rule="evenodd" d="M1 8C1 9.10457 1.89543 10 3 10C4.10457 10 5 9.10457 5 8C5 6.89543 4.10457 6 3 6C1.89543 6 1 6.89543 1 8Z" fill="#2A2A2A" stroke="white"/>
<path fill-rule="evenodd" clip-rule="evenodd" d="M1 13C1 14.1046 1.89543 15 3 15C4.10457 15 5 14.1046 5 13C5 11.8954 4.10457 11 3 11C1.89543 11 1 11.8954 1 13Z" fill="#2A2A2A" stroke="white"/>
</svg>
