<svg width="13" height="17" viewBox="0 0 13 17" fill="none" xmlns="http://www.w3.org/2000/svg">
<path fill-rule="evenodd" clip-rule="evenodd" d="M0.0452935 7.69109C0.41585 11.0743 4.55379 14.7042 6.35832 16.0303V16.0911L6.39998 16.0608L6.44164 16.0911V16.0303C8.24617 14.7042 12.3841 11.0743 12.7547 7.69109C13.2104 3.53054 10.1648 0.858094 6.44164 0.818799V0.818359L6.39998 0.818469L6.35832 0.818359V0.818799C2.63514 0.858094 -0.410405 3.53054 0.0452935 7.69109ZM6.4 9.21808C8.16731 9.21808 9.6 7.85051 9.6 6.16353C9.6 4.47655 8.16731 3.10898 6.4 3.10898C4.63269 3.10898 3.2 4.47655 3.2 6.16353C3.2 7.85051 4.63269 9.21808 6.4 9.21808Z" fill="#D6D6D6"/>
</svg>
